<?xml version="1.0" encoding="UTF-8" standalone="no"?><svg xmlns="http://www.w3.org/2000/svg" xmlns:xlink="http://www.w3.org/1999/xlink" contentScriptType="application/ecmascript" contentStyleType="text/css" height="775px" preserveAspectRatio="none" style="width:212px;height:775px;" version="1.1" viewBox="0 0 212 775" width="212px" zoomAndPan="magnify"><defs><filter height="300%" id="f11os086sirqhz" width="300%" x="-1" y="-1"><feGaussianBlur result="blurOut" stdDeviation="2.0"/><feColorMatrix in="blurOut" result="blurOut2" type="matrix" values="0 0 0 0 0 0 0 0 0 0 0 0 0 0 0 0 0 0 .4 0"/><feOffset dx="4.0" dy="4.0" in="blurOut2" result="blurOut3"/><feBlend in="SourceGraphic" in2="blurOut3" mode="normal"/></filter></defs><g><ellipse cx="103.5" cy="18" fill="#000000" filter="url(#f11os086sirqhz)" rx="10" ry="10" style="stroke: none; stroke-width: 1.0;"/><rect fill="#FEFECE" filter="url(#f11os086sirqhz)" height="36.3441" rx="12.5" ry="12.5" style="stroke: #A80036; stroke-width: 1.5;" width="105" x="51" y="68"/><text fill="#000000" font-family="sans-serif" font-size="12" lengthAdjust="spacingAndGlyphs" textLength="85" x="61" y="90.8281">Read config file</text><rect fill="#FEFECE" filter="url(#f11os086sirqhz)" height="36.3441" rx="12.5" ry="12.5" style="stroke: #A80036; stroke-width: 1.5;" width="109" x="49" y="144"/><text fill="#000000" font-family="sans-serif" font-size="12" lengthAdjust="spacingAndGlyphs" textLength="89" x="59" y="166.8281">Parse config file</text><rect fill="#FEFECE" filter="url(#f11os086sirqhz)" height="52.6882" rx="12.5" ry="12.5" style="stroke: #A80036; stroke-width: 1.5;" width="158" x="24.5" y="220"/><text fill="#000000" font-family="sans-serif" font-size="12" lengthAdjust="spacingAndGlyphs" textLength="113" x="47" y="242.8281">Extract environment</text><text fill="#000000" font-family="sans-serif" font-size="12" lengthAdjust="spacingAndGlyphs" textLength="138" x="34.5" y="259.1722">variables from config file</text><rect fill="#FEFECE" filter="url(#f11os086sirqhz)" height="36.3441" rx="12.5" ry="12.5" style="stroke: #A80036; stroke-width: 1.5;" width="195" x="6" y="313"/><text fill="#000000" font-family="sans-serif" font-size="12" lengthAdjust="spacingAndGlyphs" textLength="175" x="16" y="335.8281">Extract includes from config file</text><rect fill="#FEFECE" filter="url(#f11os086sirqhz)" height="52.6882" rx="12.5" ry="12.5" style="stroke: #A80036; stroke-width: 1.5;" width="158" x="24.5" y="389"/><text fill="#000000" font-family="sans-serif" font-size="12" lengthAdjust="spacingAndGlyphs" textLength="138" x="34.5" y="411.8281">Update current directory</text><text fill="#000000" font-family="sans-serif" font-size="12" lengthAdjust="spacingAndGlyphs" textLength="119" x="44" y="428.1722">environment variable</text><rect fill="#FEFECE" filter="url(#f11os086sirqhz)" height="52.6882" rx="12.5" ry="12.5" style="stroke: #A80036; stroke-width: 1.5;" width="152" x="27.5" y="482"/><text fill="#000000" font-family="sans-serif" font-size="12" lengthAdjust="spacingAndGlyphs" textLength="132" x="37.5" y="504.8281">Extract config overrides</text><text fill="#000000" font-family="sans-serif" font-size="12" lengthAdjust="spacingAndGlyphs" textLength="84" x="61.5" y="521.1722">from config file</text><rect fill="#FEFECE" filter="url(#f11os086sirqhz)" height="52.6882" rx="12.5" ry="12.5" style="stroke: #A80036; stroke-width: 1.5;" width="147" x="30" y="575"/><text fill="#000000" font-family="sans-serif" font-size="12" lengthAdjust="spacingAndGlyphs" textLength="124" x="41.5" y="597.8281">Apply config overrides</text><text fill="#000000" font-family="sans-serif" font-size="12" lengthAdjust="spacingAndGlyphs" textLength="127" x="40" y="614.1722">to config from includes</text><rect fill="#FEFECE" filter="url(#f11os086sirqhz)" height="36.3441" rx="12.5" ry="12.5" style="stroke: #A80036; stroke-width: 1.5;" width="116" x="45.5" y="668"/><text fill="#000000" font-family="sans-serif" font-size="12" lengthAdjust="spacingAndGlyphs" textLength="96" x="55.5" y="690.8281">Transform config</text><ellipse cx="103.5" cy="754" fill="none" filter="url(#f11os086sirqhz)" rx="10" ry="10" style="stroke: #000000; stroke-width: 1.0;"/><ellipse cx="104" cy="754.5" fill="#000000" rx="6" ry="6" style="stroke: none; stroke-width: 1.0;"/><!--MD5=[87d951b301dc8f284760690ca3fe9c12]
link start to Read config file--><path d="M103.5,28.18 C103.5,37.02 103.5,50.76 103.5,62.51 " fill="none" id="start-&gt;Read config file" style="stroke: #A80036; stroke-width: 1.0;"/><polygon fill="#A80036" points="103.5,67.75,107.5,58.75,103.5,62.75,99.5,58.75,103.5,67.75" style="stroke: #A80036; stroke-width: 1.0;"/><!--MD5=[a7d76e5e23dbf6b09fd5e6fb9a73b454]
link Read config file to Parse config file--><path d="M103.5,104.16 C103.5,114.44 103.5,127.61 103.5,138.68 " fill="none" id="Read config file-&gt;Parse config file" style="stroke: #A80036; stroke-width: 1.0;"/><polygon fill="#A80036" points="103.5,143.93,107.5,134.93,103.5,138.93,99.5,134.93,103.5,143.93" style="stroke: #A80036; stroke-width: 1.0;"/><!--MD5=[9788fee3110be2fec3500b1951f01762]
link Parse config file to Extract environment\nvariables from config file--><path d="M103.5,180.09 C103.5,190.08 103.5,202.98 103.5,214.69 " fill="none" id="Parse config file-&gt;Extract environment\nvariables from config file" style="stroke: #A80036; stroke-width: 1.0;"/><polygon fill="#A80036" points="103.5,219.96,107.5257,210.9715,103.5143,214.96,99.5257,210.9486,103.5,219.96" style="stroke: #A80036; stroke-width: 1.0;"/><!--MD5=[dc7c111a07742499f4a818e8296864ee]
link Extract environment\nvariables from config file to Extract includes from config file--><path d="M103.5,273.15 C103.5,284.21 103.5,297.02 103.5,307.68 " fill="none" id="Extract environment\nvariables from config file-&gt;Extract includes from config file" style="stroke: #A80036; stroke-width: 1.0;"/><polygon fill="#A80036" points="103.5,312.72,107.5,303.72,103.5,307.72,99.5,303.72,103.5,312.72" style="stroke: #A80036; stroke-width: 1.0;"/><!--MD5=[83a7889dd93a11f658b1b3718df200d2]
link Extract includes from config file to Update current directory\nenvironment variable--><path d="M103.5,349.09 C103.5,359.08 103.5,371.98 103.5,383.69 " fill="none" id="Extract includes from config file-&gt;Update current directory\nenvironment variable" style="stroke: #A80036; stroke-width: 1.0;"/><polygon fill="#A80036" points="103.5,388.96,107.5257,379.9715,103.5143,383.96,99.5257,379.9486,103.5,388.96" style="stroke: #A80036; stroke-width: 1.0;"/><!--MD5=[848787e98fd4f747546ba329b6b91bac]
link Update current directory\nenvironment variable to Extract config overrides\nfrom config file--><path d="M103.5,442.33 C103.5,453.09 103.5,465.66 103.5,476.87 " fill="none" id="Update current directory\nenvironment variable-&gt;Extract config overrides\nfrom config file" style="stroke: #A80036; stroke-width: 1.0;"/><polygon fill="#A80036" points="103.5,481.92,107.5,472.92,103.5,476.92,99.5,472.92,103.5,481.92" style="stroke: #A80036; stroke-width: 1.0;"/><!--MD5=[9b432f26afbe8b4f2dbd64c57224c44f]
link Extract config overrides\nfrom config file to Apply config overrides\nto config from includes--><path d="M103.5,535.33 C103.5,546.09 103.5,558.66 103.5,569.87 " fill="none" id="Extract config overrides\nfrom config file-&gt;Apply config overrides\nto config from includes" style="stroke: #A80036; stroke-width: 1.0;"/><polygon fill="#A80036" points="103.5,574.92,107.5,565.92,103.5,569.92,99.5,565.92,103.5,574.92" style="stroke: #A80036; stroke-width: 1.0;"/><!--MD5=[208b528c95a4eb6ecc2bdd8d7b44b981]
link Apply config overrides\nto config from includes to Transform config--><path d="M103.5,628.15 C103.5,639.21 103.5,652.02 103.5,662.68 " fill="none" id="Apply config overrides\nto config from includes-&gt;Transform config" style="stroke: #A80036; stroke-width: 1.0;"/><polygon fill="#A80036" points="103.5,667.72,107.5,658.72,103.5,662.72,99.5,658.72,103.5,667.72" style="stroke: #A80036; stroke-width: 1.0;"/><!--MD5=[9580b7a929d1d0cd271598fd4da08491]
link Transform config to end--><path d="M103.5,704.34 C103.5,715.04 103.5,728.6 103.5,738.68 " fill="none" id="Transform config-&gt;end" style="stroke: #A80036; stroke-width: 1.0;"/><polygon fill="#A80036" points="103.5,743.89,107.5,734.89,103.5,738.89,99.5,734.89,103.5,743.89" style="stroke: #A80036; stroke-width: 1.0;"/><!--MD5=[f4c37b1b2a96080cbdd5f31099b57138]
@startuml ConfigReader
(*) - -> "Read config file"
- -> "Parse config file"
- -> "Extract environment
     variables from config file"
- -> "Extract includes from config file"
- -> "Update current directory
     environment variable"
- -> "Extract config overrides
     from config file"
- -> "Apply config overrides
     to config from includes"
- -> "Transform config"
- -> (*)
@enduml

PlantUML version 1.2020.10(Sun May 17 11:35:57 CEST 2020)
(GPL source distribution)
Java Runtime: OpenJDK Runtime Environment
JVM: OpenJDK 64-Bit Server VM
Java Version: 11.0.8+10-post-Ubuntu-0ubuntu120.04
Operating System: Linux
Default Encoding: UTF-8
Language: en
Country: US
--></g></svg>