<?xml version="1.0" encoding="UTF-8" standalone="no"?><svg xmlns="http://www.w3.org/2000/svg" xmlns:xlink="http://www.w3.org/1999/xlink" contentScriptType="application/ecmascript" contentStyleType="text/css" height="415px" preserveAspectRatio="none" style="width:719px;height:415px;" version="1.1" viewBox="0 0 719 415" width="719px" zoomAndPan="magnify"><defs><filter height="300%" id="f19mp9k32p8vqn" width="300%" x="-1" y="-1"><feGaussianBlur result="blurOut" stdDeviation="2.0"/><feColorMatrix in="blurOut" result="blurOut2" type="matrix" values="0 0 0 0 0 0 0 0 0 0 0 0 0 0 0 0 0 0 .4 0"/><feOffset dx="4.0" dy="4.0" in="blurOut2" result="blurOut3"/><feBlend in="SourceGraphic" in2="blurOut3" mode="normal"/></filter></defs><g><!--MD5=[a7a276926f9c52ae47a6f83d030a5f62]
class ConfigNode--><rect fill="#FEFECE" filter="url(#f19mp9k32p8vqn)" height="287.7102" id="ConfigNode" style="stroke: #A80036; stroke-width: 1.5;" width="145" x="255" y="8"/><ellipse cx="292.5" cy="24" fill="#A9DCDF" rx="11" ry="11" style="stroke: #A80036; stroke-width: 1.0;"/><path d="M287.6719,29.75 L291.0156,17.5625 L294.1563,17.5625 L297.5313,29.75 L295.0625,29.75 L294.3281,26.7344 L290.8125,26.7344 L290.0625,29.75 L287.6719,29.75 Z M292.0781,21.7031 L291.3281,24.7031 L293.8438,24.7031 L293.125,21.7031 Q292.9844,21.125 292.8594,20.5781 Q292.7344,20.0156 292.5938,19.4375 Q292.4844,20.0156 292.3438,20.5781 Q292.2031,21.125 292.0781,21.7031 Z "/><text fill="#000000" font-family="sans-serif" font-size="12" font-style="italic" lengthAdjust="spacingAndGlyphs" textLength="63" x="311.5" y="28.656">ConfigNode</text><line style="stroke: #A80036; stroke-width: 1.5;" x1="256" x2="399" y1="40" y2="40"/><line style="stroke: #A80036; stroke-width: 1.5;" x1="256" x2="399" y1="48" y2="48"/><ellipse cx="266" cy="59" fill="#84BE84" rx="3" ry="3" style="stroke: #038048; stroke-width: 1.0;"/><text fill="#000000" font-family="sans-serif" font-size="11" font-style="italic" lengthAdjust="spacingAndGlyphs" textLength="31" x="275" y="63.7589">clone()</text><ellipse cx="266" cy="73.9819" fill="#84BE84" rx="3" ry="3" style="stroke: #038048; stroke-width: 1.0;"/><text fill="#000000" font-family="sans-serif" font-size="11" font-style="italic" lengthAdjust="spacingAndGlyphs" textLength="26" x="275" y="78.7408">type()</text><ellipse cx="266" cy="88.9638" fill="#84BE84" rx="3" ry="3" style="stroke: #038048; stroke-width: 1.0;"/><text fill="#000000" font-family="sans-serif" font-size="11" lengthAdjust="spacingAndGlyphs" textLength="43" x="275" y="93.7227">isValue()</text><ellipse cx="266" cy="103.9457" fill="#84BE84" rx="3" ry="3" style="stroke: #038048; stroke-width: 1.0;"/><text fill="#000000" font-family="sans-serif" font-size="11" lengthAdjust="spacingAndGlyphs" textLength="48" x="275" y="108.7046">isObject()</text><ellipse cx="266" cy="118.9276" fill="#84BE84" rx="3" ry="3" style="stroke: #038048; stroke-width: 1.0;"/><text fill="#000000" font-family="sans-serif" font-size="11" lengthAdjust="spacingAndGlyphs" textLength="94" x="275" y="123.6865">isNodeReference()</text><ellipse cx="266" cy="133.9094" fill="#84BE84" rx="3" ry="3" style="stroke: #038048; stroke-width: 1.0;"/><text fill="#000000" font-family="sans-serif" font-size="11" lengthAdjust="spacingAndGlyphs" textLength="89" x="275" y="138.6684">isDerivedObject()</text><ellipse cx="266" cy="148.8913" fill="#84BE84" rx="3" ry="3" style="stroke: #038048; stroke-width: 1.0;"/><text fill="#000000" font-family="sans-serif" font-size="11" lengthAdjust="spacingAndGlyphs" textLength="39" x="275" y="153.6502">isRoot()</text><ellipse cx="266" cy="163.8732" fill="#84BE84" rx="3" ry="3" style="stroke: #038048; stroke-width: 1.0;"/><text fill="#000000" font-family="sans-serif" font-size="11" lengthAdjust="spacingAndGlyphs" textLength="41" x="275" y="168.6321">parent()</text><ellipse cx="266" cy="178.8551" fill="#84BE84" rx="3" ry="3" style="stroke: #038048; stroke-width: 1.0;"/><text fill="#000000" font-family="sans-serif" font-size="11" lengthAdjust="spacingAndGlyphs" textLength="91" x="275" y="183.614">setParent(parent)</text><ellipse cx="266" cy="193.837" fill="#84BE84" rx="3" ry="3" style="stroke: #038048; stroke-width: 1.0;"/><text fill="#000000" font-family="sans-serif" font-size="11" lengthAdjust="spacingAndGlyphs" textLength="57" x="275" y="198.5959">rootNode()</text><ellipse cx="266" cy="208.8189" fill="#84BE84" rx="3" ry="3" style="stroke: #038048; stroke-width: 1.0;"/><text fill="#000000" font-family="sans-serif" font-size="11" lengthAdjust="spacingAndGlyphs" textLength="46" x="275" y="213.5778">toValue()</text><ellipse cx="266" cy="223.8008" fill="#84BE84" rx="3" ry="3" style="stroke: #038048; stroke-width: 1.0;"/><text fill="#000000" font-family="sans-serif" font-size="11" lengthAdjust="spacingAndGlyphs" textLength="51" x="275" y="228.5597">toObject()</text><ellipse cx="266" cy="238.7827" fill="#84BE84" rx="3" ry="3" style="stroke: #038048; stroke-width: 1.0;"/><text fill="#000000" font-family="sans-serif" font-size="11" lengthAdjust="spacingAndGlyphs" textLength="97" x="275" y="243.5416">toNodeReference()</text><ellipse cx="266" cy="253.7645" fill="#84BE84" rx="3" ry="3" style="stroke: #038048; stroke-width: 1.0;"/><text fill="#000000" font-family="sans-serif" font-size="11" lengthAdjust="spacingAndGlyphs" textLength="92" x="275" y="258.5235">toDerivedObject()</text><ellipse cx="266" cy="268.7464" fill="#84BE84" rx="3" ry="3" style="stroke: #038048; stroke-width: 1.0;"/><text fill="#000000" font-family="sans-serif" font-size="11" lengthAdjust="spacingAndGlyphs" textLength="57" x="275" y="273.5053">nodePath()</text><ellipse cx="266" cy="283.7283" fill="#84BE84" rx="3" ry="3" style="stroke: #038048; stroke-width: 1.0;"/><text fill="#000000" font-family="sans-serif" font-size="11" lengthAdjust="spacingAndGlyphs" textLength="119" x="275" y="288.4872">nodeAtPath(nodePath)</text><!--MD5=[575426ad72e9f3f108a63f8dae908128]
class ConfigValueNode--><rect fill="#FEFECE" filter="url(#f19mp9k32p8vqn)" height="48" id="ConfigValueNode" style="stroke: #A80036; stroke-width: 1.5;" width="129" x="6" y="356"/><ellipse cx="21" cy="372" fill="#ADD1B2" rx="11" ry="11" style="stroke: #A80036; stroke-width: 1.0;"/><path d="M20.4688,378.9219 Q18.7188,378.9219 17.5781,378.1875 Q16.4531,377.4375 15.8906,376.0938 Q15.3438,374.7344 15.3438,372.9375 Q15.3438,370.9063 16,369.4531 Q16.6563,368 17.9375,367.2188 Q19.2188,366.4375 21.0938,366.4375 Q21.9844,366.4375 22.6563,366.625 Q23.3281,366.7969 24.0156,367.1406 L23.2031,369.1563 Q22.5781,368.8438 22.0313,368.7188 Q21.5,368.5938 21.0156,368.5938 Q19.8438,368.5938 19.1406,369.125 Q18.4375,369.6563 18.1406,370.6094 Q17.8438,371.5625 17.8438,372.8281 Q17.8438,374.8438 18.5625,375.8125 Q19.2813,376.7656 20.875,376.7656 Q21.4688,376.7656 22.0938,376.6094 Q22.7188,376.4531 23.5469,376.0781 L23.5469,378.2969 Q22.8125,378.6094 22.0156,378.7656 Q21.2344,378.9219 20.4688,378.9219 Z "/><text fill="#000000" font-family="sans-serif" font-size="12" lengthAdjust="spacingAndGlyphs" textLength="97" x="35" y="376.656">ConfigValueNode</text><line style="stroke: #A80036; stroke-width: 1.5;" x1="7" x2="134" y1="388" y2="388"/><line style="stroke: #A80036; stroke-width: 1.5;" x1="7" x2="134" y1="396" y2="396"/><!--MD5=[a2f695ec1be2d699b5668dd356d59d23]
class ConfigObjectNode--><rect fill="#FEFECE" filter="url(#f19mp9k32p8vqn)" height="48" id="ConfigObjectNode" style="stroke: #A80036; stroke-width: 1.5;" width="134" x="170.5" y="356"/><ellipse cx="185.5" cy="372" fill="#ADD1B2" rx="11" ry="11" style="stroke: #A80036; stroke-width: 1.0;"/><path d="M184.9688,378.9219 Q183.2188,378.9219 182.0781,378.1875 Q180.9531,377.4375 180.3906,376.0938 Q179.8438,374.7344 179.8438,372.9375 Q179.8438,370.9063 180.5,369.4531 Q181.1563,368 182.4375,367.2188 Q183.7188,366.4375 185.5938,366.4375 Q186.4844,366.4375 187.1563,366.625 Q187.8281,366.7969 188.5156,367.1406 L187.7031,369.1563 Q187.0781,368.8438 186.5313,368.7188 Q186,368.5938 185.5156,368.5938 Q184.3438,368.5938 183.6406,369.125 Q182.9375,369.6563 182.6406,370.6094 Q182.3438,371.5625 182.3438,372.8281 Q182.3438,374.8438 183.0625,375.8125 Q183.7813,376.7656 185.375,376.7656 Q185.9688,376.7656 186.5938,376.6094 Q187.2188,376.4531 188.0469,376.0781 L188.0469,378.2969 Q187.3125,378.6094 186.5156,378.7656 Q185.7344,378.9219 184.9688,378.9219 Z "/><text fill="#000000" font-family="sans-serif" font-size="12" lengthAdjust="spacingAndGlyphs" textLength="102" x="199.5" y="376.656">ConfigObjectNode</text><line style="stroke: #A80036; stroke-width: 1.5;" x1="171.5" x2="303.5" y1="388" y2="388"/><line style="stroke: #A80036; stroke-width: 1.5;" x1="171.5" x2="303.5" y1="396" y2="396"/><!--MD5=[0d99208a4a4f69f412063ae7199684d3]
class ConfigNodeReference--><rect fill="#FEFECE" filter="url(#f19mp9k32p8vqn)" height="48" id="ConfigNodeReference" style="stroke: #A80036; stroke-width: 1.5;" width="155" x="340" y="356"/><ellipse cx="355" cy="372" fill="#ADD1B2" rx="11" ry="11" style="stroke: #A80036; stroke-width: 1.0;"/><path d="M354.4688,378.9219 Q352.7188,378.9219 351.5781,378.1875 Q350.4531,377.4375 349.8906,376.0938 Q349.3438,374.7344 349.3438,372.9375 Q349.3438,370.9063 350,369.4531 Q350.6563,368 351.9375,367.2188 Q353.2188,366.4375 355.0938,366.4375 Q355.9844,366.4375 356.6563,366.625 Q357.3281,366.7969 358.0156,367.1406 L357.2031,369.1563 Q356.5781,368.8438 356.0313,368.7188 Q355.5,368.5938 355.0156,368.5938 Q353.8438,368.5938 353.1406,369.125 Q352.4375,369.6563 352.1406,370.6094 Q351.8438,371.5625 351.8438,372.8281 Q351.8438,374.8438 352.5625,375.8125 Q353.2813,376.7656 354.875,376.7656 Q355.4688,376.7656 356.0938,376.6094 Q356.7188,376.4531 357.5469,376.0781 L357.5469,378.2969 Q356.8125,378.6094 356.0156,378.7656 Q355.2344,378.9219 354.4688,378.9219 Z "/><text fill="#000000" font-family="sans-serif" font-size="12" lengthAdjust="spacingAndGlyphs" textLength="123" x="369" y="376.656">ConfigNodeReference</text><line style="stroke: #A80036; stroke-width: 1.5;" x1="341" x2="494" y1="388" y2="388"/><line style="stroke: #A80036; stroke-width: 1.5;" x1="341" x2="494" y1="396" y2="396"/><!--MD5=[180588c6ae06b7db2af095e0031c0ec7]
class ConfigDerivedObjectNode--><rect fill="#FEFECE" filter="url(#f19mp9k32p8vqn)" height="48" id="ConfigDerivedObjectNode" style="stroke: #A80036; stroke-width: 1.5;" width="178" x="530.5" y="356"/><ellipse cx="545.5" cy="372" fill="#ADD1B2" rx="11" ry="11" style="stroke: #A80036; stroke-width: 1.0;"/><path d="M544.9688,378.9219 Q543.2188,378.9219 542.0781,378.1875 Q540.9531,377.4375 540.3906,376.0938 Q539.8438,374.7344 539.8438,372.9375 Q539.8438,370.9063 540.5,369.4531 Q541.1563,368 542.4375,367.2188 Q543.7188,366.4375 545.5938,366.4375 Q546.4844,366.4375 547.1563,366.625 Q547.8281,366.7969 548.5156,367.1406 L547.7031,369.1563 Q547.0781,368.8438 546.5313,368.7188 Q546,368.5938 545.5156,368.5938 Q544.3438,368.5938 543.6406,369.125 Q542.9375,369.6563 542.6406,370.6094 Q542.3438,371.5625 542.3438,372.8281 Q542.3438,374.8438 543.0625,375.8125 Q543.7813,376.7656 545.375,376.7656 Q545.9688,376.7656 546.5938,376.6094 Q547.2188,376.4531 548.0469,376.0781 L548.0469,378.2969 Q547.3125,378.6094 546.5156,378.7656 Q545.7344,378.9219 544.9688,378.9219 Z "/><text fill="#000000" font-family="sans-serif" font-size="12" lengthAdjust="spacingAndGlyphs" textLength="146" x="559.5" y="376.656">ConfigDerivedObjectNode</text><line style="stroke: #A80036; stroke-width: 1.5;" x1="531.5" x2="707.5" y1="388" y2="388"/><line style="stroke: #A80036; stroke-width: 1.5;" x1="531.5" x2="707.5" y1="396" y2="396"/><!--MD5=[9973ed0a6358e9ebd09e48a43a30127b]
reverse link ConfigNode to ConfigValueNode--><path d="M239.65,230.25 C189.48,274.37 130.09,326.6 96.7,355.96 " fill="none" id="ConfigNode&lt;-ConfigValueNode" style="stroke: #A80036; stroke-width: 1.0;"/><polygon fill="none" points="235.24,224.81,254.88,216.86,244.49,235.32,235.24,224.81" style="stroke: #A80036; stroke-width: 1.0;"/><!--MD5=[353fa94a07706ac34ceef480849d69a6]
reverse link ConfigNode to ConfigObjectNode--><path d="M263.04,314.86 C256.77,330.61 251.12,344.79 246.75,355.78 " fill="none" id="ConfigNode&lt;-ConfigObjectNode" style="stroke: #A80036; stroke-width: 1.0;"/><polygon fill="none" points="256.6,312.12,270.5,296.13,269.61,317.3,256.6,312.12" style="stroke: #A80036; stroke-width: 1.0;"/><!--MD5=[87a872849f0e81dedf38434b5892eb7b]
reverse link ConfigNode to ConfigNodeReference--><path d="M391.96,314.86 C398.23,330.61 403.88,344.79 408.25,355.78 " fill="none" id="ConfigNode&lt;-ConfigNodeReference" style="stroke: #A80036; stroke-width: 1.0;"/><polygon fill="none" points="385.39,317.3,384.5,296.13,398.4,312.12,385.39,317.3" style="stroke: #A80036; stroke-width: 1.0;"/><!--MD5=[199aeddf56979ecc1511136239c0505d]
reverse link ConfigNode to ConfigDerivedObjectNode--><path d="M415.91,221.43 C475.09,267.23 549.29,324.66 589.77,355.99 " fill="none" id="ConfigNode&lt;-ConfigDerivedObjectNode" style="stroke: #A80036; stroke-width: 1.0;"/><polygon fill="none" points="411.59,226.93,400.05,209.16,420.16,215.86,411.59,226.93" style="stroke: #A80036; stroke-width: 1.0;"/><!--MD5=[223b1d98b7cc998e7f6b5fe77b649732]
@startuml ConfigNode
ConfigNode <|- - ConfigValueNode
ConfigNode <|- - ConfigObjectNode
ConfigNode <|- - ConfigNodeReference
ConfigNode <|- - ConfigDerivedObjectNode

abstract class ConfigNode {
    {abstract} +clone()
    {abstract} +type()
    +isValue()
    +isObject()
    +isNodeReference()
    +isDerivedObject()
    +isRoot()
    +parent()
    +setParent(parent)
    +rootNode()
    +toValue()
    +toObject()
    +toNodeReference()
    +toDerivedObject()
    +nodePath()
    +nodeAtPath(nodePath)
}
@enduml

PlantUML version 1.2020.10(Sun May 17 11:35:57 CEST 2020)
(GPL source distribution)
Java Runtime: OpenJDK Runtime Environment
JVM: OpenJDK 64-Bit Server VM
Java Version: 11.0.8+10-post-Ubuntu-0ubuntu120.04
Operating System: Linux
Default Encoding: UTF-8
Language: en
Country: US
--></g></svg>