<?xml version="1.0" encoding="UTF-8" standalone="no"?><svg xmlns="http://www.w3.org/2000/svg" xmlns:xlink="http://www.w3.org/1999/xlink" contentScriptType="application/ecmascript" contentStyleType="text/css" height="477px" preserveAspectRatio="none" style="width:627px;height:477px;" version="1.1" viewBox="0 0 627 477" width="627px" zoomAndPan="magnify"><defs><filter height="300%" id="f1tj0jktqrintw" width="300%" x="-1" y="-1"><feGaussianBlur result="blurOut" stdDeviation="2.0"/><feColorMatrix in="blurOut" result="blurOut2" type="matrix" values="0 0 0 0 0 0 0 0 0 0 0 0 0 0 0 0 0 0 .4 0"/><feOffset dx="4.0" dy="4.0" in="blurOut2" result="blurOut3"/><feBlend in="SourceGraphic" in2="blurOut3" mode="normal"/></filter></defs><g><!--MD5=[2c327dced06477d2f323ad5608492ab8]
class ConfigReaderBase--><rect fill="#FEFECE" filter="url(#f1tj0jktqrintw)" height="152.8732" id="ConfigReaderBase" style="stroke: #A80036; stroke-width: 1.5;" width="488" x="67" y="161"/><ellipse cx="257.75" cy="177" fill="#A9DCDF" rx="11" ry="11" style="stroke: #A80036; stroke-width: 1.0;"/><path d="M252.9219,182.75 L256.2656,170.5625 L259.4063,170.5625 L262.7813,182.75 L260.3125,182.75 L259.5781,179.7344 L256.0625,179.7344 L255.3125,182.75 L252.9219,182.75 Z M257.3281,174.7031 L256.5781,177.7031 L259.0938,177.7031 L258.375,174.7031 Q258.2344,174.125 258.1094,173.5781 Q257.9844,173.0156 257.8438,172.4375 Q257.7344,173.0156 257.5938,173.5781 Q257.4531,174.125 257.3281,174.7031 Z "/><text fill="#000000" font-family="sans-serif" font-size="12" font-style="italic" lengthAdjust="spacingAndGlyphs" textLength="98" x="278.25" y="181.656">ConfigReaderBase</text><line style="stroke: #A80036; stroke-width: 1.5;" x1="68" x2="554" y1="193" y2="193"/><line style="stroke: #A80036; stroke-width: 1.5;" x1="68" x2="554" y1="201" y2="201"/><ellipse cx="78" cy="212" fill="#84BE84" rx="3" ry="3" style="stroke: #038048; stroke-width: 1.0;"/><text fill="#000000" font-family="sans-serif" font-size="11" lengthAdjust="spacingAndGlyphs" textLength="166" x="87" y="216.7589">referenceResolutionMaxCycles()</text><ellipse cx="78" cy="226.9819" fill="#84BE84" rx="3" ry="3" style="stroke: #038048; stroke-width: 1.0;"/><text fill="#000000" font-family="sans-serif" font-size="11" lengthAdjust="spacingAndGlyphs" textLength="343" x="87" y="231.7408">setReferenceResolutionMaxCycles(referenceResolutionMaxCycles)</text><ellipse cx="78" cy="241.9638" fill="#84BE84" rx="3" ry="3" style="stroke: #038048; stroke-width: 1.0;"/><text fill="#000000" font-family="sans-serif" font-size="11" font-style="italic" lengthAdjust="spacingAndGlyphs" textLength="462" x="87" y="246.7227">read(workingDir, destinationNodePath, otherParameters, externalConfigs, environmentVariables)</text><polygon fill="#FFFF44" points="78,251.9457,82,255.9457,78,259.9457,74,255.9457" style="stroke: #B38D22; stroke-width: 1.0;"/><text fill="#000000" font-family="sans-serif" font-size="11" lengthAdjust="spacingAndGlyphs" text-decoration="underline" textLength="113" x="87" y="261.7046">isFullyResolved(node)</text><polygon fill="#FFFF44" points="78,266.9276,82,270.9276,78,274.9276,74,270.9276" style="stroke: #B38D22; stroke-width: 1.0;"/><text fill="#000000" font-family="sans-serif" font-size="11" lengthAdjust="spacingAndGlyphs" text-decoration="underline" textLength="149" x="87" y="276.6865">unresolvedReferences(node)</text><polygon fill="#FFFF44" points="78,281.9094,82,285.9094,78,289.9094,74,285.9094" style="stroke: #B38D22; stroke-width: 1.0;"/><text fill="#000000" font-family="sans-serif" font-size="11" lengthAdjust="spacingAndGlyphs" text-decoration="underline" textLength="223" x="87" y="291.6684">resolveReferences(externalConfigs, config)</text><polygon fill="#FFFF44" points="78,296.8913,82,300.8913,78,304.8913,74,300.8913" style="stroke: #B38D22; stroke-width: 1.0;"/><text fill="#000000" font-family="sans-serif" font-size="11" lengthAdjust="spacingAndGlyphs" text-decoration="underline" textLength="337" x="87" y="306.6502">transformConfig(config, sourceNodePath, destinationNodePath)</text><!--MD5=[cf9e202def5d840406cf1e9864506dae]
class ConfigReader--><rect fill="#FEFECE" filter="url(#f1tj0jktqrintw)" height="92.9457" id="ConfigReader" style="stroke: #A80036; stroke-width: 1.5;" width="610" x="6" y="374"/><ellipse cx="268.75" cy="390" fill="#ADD1B2" rx="11" ry="11" style="stroke: #A80036; stroke-width: 1.0;"/><path d="M268.2188,396.9219 Q266.4688,396.9219 265.3281,396.1875 Q264.2031,395.4375 263.6406,394.0938 Q263.0938,392.7344 263.0938,390.9375 Q263.0938,388.9063 263.75,387.4531 Q264.4063,386 265.6875,385.2188 Q266.9688,384.4375 268.8438,384.4375 Q269.7344,384.4375 270.4063,384.625 Q271.0781,384.7969 271.7656,385.1406 L270.9531,387.1563 Q270.3281,386.8438 269.7813,386.7188 Q269.25,386.5938 268.7656,386.5938 Q267.5938,386.5938 266.8906,387.125 Q266.1875,387.6563 265.8906,388.6094 Q265.5938,389.5625 265.5938,390.8281 Q265.5938,392.8438 266.3125,393.8125 Q267.0313,394.7656 268.625,394.7656 Q269.2188,394.7656 269.8438,394.6094 Q270.4688,394.4531 271.2969,394.0781 L271.2969,396.2969 Q270.5625,396.6094 269.7656,396.7656 Q268.9844,396.9219 268.2188,396.9219 Z "/><text fill="#000000" font-family="sans-serif" font-size="12" lengthAdjust="spacingAndGlyphs" textLength="76" x="289.25" y="394.656">ConfigReader</text><line style="stroke: #A80036; stroke-width: 1.5;" x1="7" x2="615" y1="406" y2="406"/><line style="stroke: #A80036; stroke-width: 1.5;" x1="7" x2="615" y1="414" y2="414"/><ellipse cx="17" cy="425" fill="#84BE84" rx="3" ry="3" style="stroke: #038048; stroke-width: 1.0;"/><text fill="#000000" font-family="sans-serif" font-size="11" lengthAdjust="spacingAndGlyphs" textLength="557" x="26" y="429.7589">read(filePath, workingDir, sourceNodePath, destinationNodePath, externalConfigs, environmentVariables)</text><ellipse cx="17" cy="439.9819" fill="#84BE84" rx="3" ry="3" style="stroke: #038048; stroke-width: 1.0;"/><text fill="#000000" font-family="sans-serif" font-size="11" lengthAdjust="spacingAndGlyphs" textLength="584" x="26" y="444.7408">read(configObject, workingDir, sourceNodePath, destinationNodePath, externalConfigs, environmentVariables)</text><ellipse cx="17" cy="454.9638" fill="#84BE84" rx="3" ry="3" style="stroke: #038048; stroke-width: 1.0;"/><text fill="#000000" font-family="sans-serif" font-size="11" lengthAdjust="spacingAndGlyphs" textLength="513" x="26" y="459.7227">read(workingDir, destinationNodePath, otherParameters, externalConfigs, environmentVariables)</text><!--MD5=[77208f6e28b8630fb34361fdb3d1c093]
class ConfigReaderRegistry--><rect fill="#FEFECE" filter="url(#f1tj0jktqrintw)" height="92.9457" id="ConfigReaderRegistry" style="stroke: #A80036; stroke-width: 1.5;" width="603" x="9.5" y="8"/><ellipse cx="246.25" cy="24" fill="#ADD1B2" rx="11" ry="11" style="stroke: #A80036; stroke-width: 1.0;"/><path d="M245.7188,30.9219 Q243.9688,30.9219 242.8281,30.1875 Q241.7031,29.4375 241.1406,28.0938 Q240.5938,26.7344 240.5938,24.9375 Q240.5938,22.9063 241.25,21.4531 Q241.9063,20 243.1875,19.2188 Q244.4688,18.4375 246.3438,18.4375 Q247.2344,18.4375 247.9063,18.625 Q248.5781,18.7969 249.2656,19.1406 L248.4531,21.1563 Q247.8281,20.8438 247.2813,20.7188 Q246.75,20.5938 246.2656,20.5938 Q245.0938,20.5938 244.3906,21.125 Q243.6875,21.6563 243.3906,22.6094 Q243.0938,23.5625 243.0938,24.8281 Q243.0938,26.8438 243.8125,27.8125 Q244.5313,28.7656 246.125,28.7656 Q246.7188,28.7656 247.3438,28.6094 Q247.9688,28.4531 248.7969,28.0781 L248.7969,30.2969 Q248.0625,30.6094 247.2656,30.7656 Q246.4844,30.9219 245.7188,30.9219 Z "/><text fill="#000000" font-family="sans-serif" font-size="12" lengthAdjust="spacingAndGlyphs" textLength="121" x="266.75" y="28.656">ConfigReaderRegistry</text><line style="stroke: #A80036; stroke-width: 1.5;" x1="10.5" x2="611.5" y1="40" y2="40"/><line style="stroke: #A80036; stroke-width: 1.5;" x1="10.5" x2="611.5" y1="48" y2="48"/><ellipse cx="20.5" cy="59" fill="#84BE84" rx="3" ry="3" style="stroke: #038048; stroke-width: 1.0;"/><text fill="#000000" font-family="sans-serif" font-size="11" lengthAdjust="spacingAndGlyphs" text-decoration="underline" textLength="49" x="29.5" y="63.7589">instance()</text><ellipse cx="20.5" cy="73.9819" fill="#84BE84" rx="3" ry="3" style="stroke: #038048; stroke-width: 1.0;"/><text fill="#000000" font-family="sans-serif" font-size="11" lengthAdjust="spacingAndGlyphs" textLength="218" x="29.5" y="78.7408">registerConfigReader(type, configReader)</text><ellipse cx="20.5" cy="88.9638" fill="#84BE84" rx="3" ry="3" style="stroke: #038048; stroke-width: 1.0;"/><text fill="#000000" font-family="sans-serif" font-size="11" lengthAdjust="spacingAndGlyphs" textLength="577" x="29.5" y="93.7227">readConfig(type, workingDir, destinationNodePath, otherParameters, externalConfigs, environmentVariables)</text><!--MD5=[26f634447b80be5a3757e98e2c01fca6]
reverse link ConfigReaderBase to ConfigReader--><path d="M311,334.32 C311,348.07 311,361.65 311,373.79 " fill="none" id="ConfigReaderBase&lt;-ConfigReader" style="stroke: #A80036; stroke-width: 1.0;"/><polygon fill="none" points="304,334.21,311,314.21,318,334.21,304,334.21" style="stroke: #A80036; stroke-width: 1.0;"/><!--MD5=[5e0c03f4ea7430c6926af8976e9e9d64]
reverse link ConfigReaderRegistry to ConfigReaderBase--><path d="M311,114.39 C311,129.23 311,145.37 311,160.91 " fill="none" id="ConfigReaderRegistry&lt;-ConfigReaderBase" style="stroke: #A80036; stroke-width: 1.0;"/><polygon fill="#A80036" points="311,101.17,307,107.17,311,113.17,315,107.17,311,101.17" style="stroke: #A80036; stroke-width: 1.0;"/><!--MD5=[58599dde5ca21935773dc489a1f769ed]
@startuml ConfigReader
ConfigReaderBase <|- - ConfigReader
ConfigReaderRegistry *- - ConfigReaderBase

abstract class ConfigReaderBase {
    +referenceResolutionMaxCycles()
    +setReferenceResolutionMaxCycles(referenceResolutionMaxCycles)
    {abstract} +read(workingDir, destinationNodePath, otherParameters, externalConfigs, environmentVariables)
    {static} #isFullyResolved(node)
    {static} #unresolvedReferences(node)
    {static} #resolveReferences(externalConfigs, config)
    {static} #transformConfig(config, sourceNodePath, destinationNodePath)
}

class ConfigReader {
    +read(filePath, workingDir, sourceNodePath, destinationNodePath, externalConfigs, environmentVariables)
    +read(configObject, workingDir, sourceNodePath, destinationNodePath, externalConfigs, environmentVariables)
    +read(workingDir, destinationNodePath, otherParameters, externalConfigs, environmentVariables)
}

class ConfigReaderRegistry {
    {static} +instance()
    +registerConfigReader(type, configReader)
    +readConfig(type, workingDir, destinationNodePath, otherParameters, externalConfigs, environmentVariables)
}
@enduml

PlantUML version 1.2020.10(Sun May 17 11:35:57 CEST 2020)
(GPL source distribution)
Java Runtime: OpenJDK Runtime Environment
JVM: OpenJDK 64-Bit Server VM
Java Version: 11.0.8+10-post-Ubuntu-0ubuntu120.04
Operating System: Linux
Default Encoding: UTF-8
Language: en
Country: US
--></g></svg>