<?xml version="1.0" encoding="UTF-8" standalone="no"?><svg xmlns="http://www.w3.org/2000/svg" xmlns:xlink="http://www.w3.org/1999/xlink" contentScriptType="application/ecmascript" contentStyleType="text/css" height="234px" preserveAspectRatio="none" style="width:172px;height:234px;" version="1.1" viewBox="0 0 172 234" width="172px" zoomAndPan="magnify"><defs><filter height="300%" id="f1kj9lpu3vmjzl" width="300%" x="-1" y="-1"><feGaussianBlur result="blurOut" stdDeviation="2.0"/><feColorMatrix in="blurOut" result="blurOut2" type="matrix" values="0 0 0 0 0 0 0 0 0 0 0 0 0 0 0 0 0 0 .4 0"/><feOffset dx="4.0" dy="4.0" in="blurOut2" result="blurOut3"/><feBlend in="SourceGraphic" in2="blurOut3" mode="normal"/></filter></defs><g><!--MD5=[a7a276926f9c52ae47a6f83d030a5f62]
class ConfigNode--><rect fill="#FEFECE" filter="url(#f1kj9lpu3vmjzl)" height="48" id="ConfigNode" style="stroke: #A80036; stroke-width: 1.5;" width="95" x="36" y="8"/><ellipse cx="51" cy="24" fill="#A9DCDF" rx="11" ry="11" style="stroke: #A80036; stroke-width: 1.0;"/><path d="M46.1719,29.75 L49.5156,17.5625 L52.6563,17.5625 L56.0313,29.75 L53.5625,29.75 L52.8281,26.7344 L49.3125,26.7344 L48.5625,29.75 L46.1719,29.75 Z M50.5781,21.7031 L49.8281,24.7031 L52.3438,24.7031 L51.625,21.7031 Q51.4844,21.125 51.3594,20.5781 Q51.2344,20.0156 51.0938,19.4375 Q50.9844,20.0156 50.8438,20.5781 Q50.7031,21.125 50.5781,21.7031 Z "/><text fill="#000000" font-family="sans-serif" font-size="12" font-style="italic" lengthAdjust="spacingAndGlyphs" textLength="63" x="65" y="28.656">ConfigNode</text><line style="stroke: #A80036; stroke-width: 1.5;" x1="37" x2="130" y1="40" y2="40"/><line style="stroke: #A80036; stroke-width: 1.5;" x1="37" x2="130" y1="48" y2="48"/><!--MD5=[0d99208a4a4f69f412063ae7199684d3]
class ConfigNodeReference--><rect fill="#FEFECE" filter="url(#f1kj9lpu3vmjzl)" height="107.9276" id="ConfigNodeReference" style="stroke: #A80036; stroke-width: 1.5;" width="155" x="6" y="116"/><ellipse cx="21" cy="132" fill="#ADD1B2" rx="11" ry="11" style="stroke: #A80036; stroke-width: 1.0;"/><path d="M20.4688,138.9219 Q18.7188,138.9219 17.5781,138.1875 Q16.4531,137.4375 15.8906,136.0938 Q15.3438,134.7344 15.3438,132.9375 Q15.3438,130.9063 16,129.4531 Q16.6563,128 17.9375,127.2188 Q19.2188,126.4375 21.0938,126.4375 Q21.9844,126.4375 22.6563,126.625 Q23.3281,126.7969 24.0156,127.1406 L23.2031,129.1563 Q22.5781,128.8438 22.0313,128.7188 Q21.5,128.5938 21.0156,128.5938 Q19.8438,128.5938 19.1406,129.125 Q18.4375,129.6563 18.1406,130.6094 Q17.8438,131.5625 17.8438,132.8281 Q17.8438,134.8438 18.5625,135.8125 Q19.2813,136.7656 20.875,136.7656 Q21.4688,136.7656 22.0938,136.6094 Q22.7188,136.4531 23.5469,136.0781 L23.5469,138.2969 Q22.8125,138.6094 22.0156,138.7656 Q21.2344,138.9219 20.4688,138.9219 Z "/><text fill="#000000" font-family="sans-serif" font-size="12" lengthAdjust="spacingAndGlyphs" textLength="123" x="35" y="136.656">ConfigNodeReference</text><line style="stroke: #A80036; stroke-width: 1.5;" x1="7" x2="160" y1="148" y2="148"/><line style="stroke: #A80036; stroke-width: 1.5;" x1="7" x2="160" y1="156" y2="156"/><ellipse cx="17" cy="167" fill="#84BE84" rx="3" ry="3" style="stroke: #038048; stroke-width: 1.0;"/><text fill="#000000" font-family="sans-serif" font-size="11" font-style="italic" lengthAdjust="spacingAndGlyphs" textLength="31" x="26" y="171.7589">clone()</text><ellipse cx="17" cy="181.9819" fill="#84BE84" rx="3" ry="3" style="stroke: #038048; stroke-width: 1.0;"/><text fill="#000000" font-family="sans-serif" font-size="11" font-style="italic" lengthAdjust="spacingAndGlyphs" textLength="26" x="26" y="186.7408">type()</text><ellipse cx="17" cy="196.9638" fill="#84BE84" rx="3" ry="3" style="stroke: #038048; stroke-width: 1.0;"/><text fill="#000000" font-family="sans-serif" font-size="11" lengthAdjust="spacingAndGlyphs" textLength="56" x="26" y="201.7227">reference()</text><ellipse cx="17" cy="211.9457" fill="#84BE84" rx="3" ry="3" style="stroke: #038048; stroke-width: 1.0;"/><text fill="#000000" font-family="sans-serif" font-size="11" lengthAdjust="spacingAndGlyphs" textLength="123" x="26" y="216.7046">setReference(reference)</text><!--MD5=[87a872849f0e81dedf38434b5892eb7b]
reverse link ConfigNode to ConfigNodeReference--><path d="M83.5,76.24 C83.5,88.82 83.5,102.71 83.5,115.82 " fill="none" id="ConfigNode&lt;-ConfigNodeReference" style="stroke: #A80036; stroke-width: 1.0;"/><polygon fill="none" points="76.5,76.07,83.5,56.07,90.5,76.07,76.5,76.07" style="stroke: #A80036; stroke-width: 1.0;"/><!--MD5=[bd561c72a883331d54133ef74a997a9e]
@startuml ConfigNodeReference
ConfigNode <|- - ConfigNodeReference

abstract class ConfigNode

class ConfigNodeReference {
    {abstract} +clone()
    {abstract} +type() 
    +reference()
    +setReference(reference)
}
@enduml

PlantUML version 1.2020.10(Sun May 17 11:35:57 CEST 2020)
(GPL source distribution)
Java Runtime: OpenJDK Runtime Environment
JVM: OpenJDK 64-Bit Server VM
Java Version: 11.0.8+10-post-Ubuntu-0ubuntu120.04
Operating System: Linux
Default Encoding: UTF-8
Language: en
Country: US
--></g></svg>