<?xml version="1.0" encoding="UTF-8" standalone="no"?><svg xmlns="http://www.w3.org/2000/svg" xmlns:xlink="http://www.w3.org/1999/xlink" contentScriptType="application/ecmascript" contentStyleType="text/css" height="417px" preserveAspectRatio="none" style="width:1096px;height:417px;background:#FFFFFF;" version="1.1" viewBox="0 0 1096 417" width="1096px" zoomAndPan="magnify"><defs><filter height="300%" id="f1898hvl8t21n4" width="300%" x="-1" y="-1"><feGaussianBlur result="blurOut" stdDeviation="2.0"/><feColorMatrix in="blurOut" result="blurOut2" type="matrix" values="0 0 0 0 0 0 0 0 0 0 0 0 0 0 0 0 0 0 .4 0"/><feOffset dx="4.0" dy="4.0" in="blurOut2" result="blurOut3"/><feBlend in="SourceGraphic" in2="blurOut3" mode="normal"/></filter></defs><g><!--MD5=[a7a276926f9c52ae47a6f83d030a5f62]
class ConfigNode--><rect codeLine="8" fill="#FEFECE" filter="url(#f1898hvl8t21n4)" height="287.7102" id="ConfigNode" style="stroke:#A80036;stroke-width:1.5;" width="145" x="421" y="7"/><ellipse cx="458.5" cy="23" fill="#A9DCDF" rx="11" ry="11" style="stroke:#A80036;stroke-width:1.0;"/><path d="M453.6719,28.75 L457.0156,16.5625 L460.1563,16.5625 L463.5313,28.75 L461.0625,28.75 L460.3281,25.7344 L456.8125,25.7344 L456.0625,28.75 L453.6719,28.75 Z M458.0781,20.7031 L457.3281,23.7031 L459.8438,23.7031 L459.125,20.7031 Q458.9844,20.125 458.8594,19.5781 Q458.7344,19.0156 458.5938,18.4375 Q458.4844,19.0156 458.3438,19.5781 Q458.2031,20.125 458.0781,20.7031 Z " fill="#000000"/><text fill="#000000" font-family="sans-serif" font-size="12" font-style="italic" lengthAdjust="spacing" textLength="63" x="477.5" y="27.656">ConfigNode</text><line style="stroke:#A80036;stroke-width:1.5;" x1="422" x2="565" y1="39" y2="39"/><line style="stroke:#A80036;stroke-width:1.5;" x1="422" x2="565" y1="47" y2="47"/><ellipse cx="432" cy="58" fill="#84BE84" rx="3" ry="3" style="stroke:#038048;stroke-width:1.0;"/><text fill="#000000" font-family="sans-serif" font-size="11" font-style="italic" lengthAdjust="spacing" textLength="31" x="441" y="62.7589">clone()</text><ellipse cx="432" cy="72.9819" fill="#84BE84" rx="3" ry="3" style="stroke:#038048;stroke-width:1.0;"/><text fill="#000000" font-family="sans-serif" font-size="11" font-style="italic" lengthAdjust="spacing" textLength="26" x="441" y="77.7408">type()</text><ellipse cx="432" cy="87.9638" fill="#84BE84" rx="3" ry="3" style="stroke:#038048;stroke-width:1.0;"/><text fill="#000000" font-family="sans-serif" font-size="11" lengthAdjust="spacing" textLength="43" x="441" y="92.7227">isValue()</text><ellipse cx="432" cy="102.9457" fill="#84BE84" rx="3" ry="3" style="stroke:#038048;stroke-width:1.0;"/><text fill="#000000" font-family="sans-serif" font-size="11" lengthAdjust="spacing" textLength="48" x="441" y="107.7046">isObject()</text><ellipse cx="432" cy="117.9276" fill="#84BE84" rx="3" ry="3" style="stroke:#038048;stroke-width:1.0;"/><text fill="#000000" font-family="sans-serif" font-size="11" lengthAdjust="spacing" textLength="94" x="441" y="122.6865">isNodeReference()</text><ellipse cx="432" cy="132.9094" fill="#84BE84" rx="3" ry="3" style="stroke:#038048;stroke-width:1.0;"/><text fill="#000000" font-family="sans-serif" font-size="11" lengthAdjust="spacing" textLength="89" x="441" y="137.6684">isDerivedObject()</text><ellipse cx="432" cy="147.8913" fill="#84BE84" rx="3" ry="3" style="stroke:#038048;stroke-width:1.0;"/><text fill="#000000" font-family="sans-serif" font-size="11" lengthAdjust="spacing" textLength="39" x="441" y="152.6502">isRoot()</text><ellipse cx="432" cy="162.8732" fill="#84BE84" rx="3" ry="3" style="stroke:#038048;stroke-width:1.0;"/><text fill="#000000" font-family="sans-serif" font-size="11" lengthAdjust="spacing" textLength="41" x="441" y="167.6321">parent()</text><ellipse cx="432" cy="177.8551" fill="#84BE84" rx="3" ry="3" style="stroke:#038048;stroke-width:1.0;"/><text fill="#000000" font-family="sans-serif" font-size="11" lengthAdjust="spacing" textLength="91" x="441" y="182.614">setParent(parent)</text><ellipse cx="432" cy="192.837" fill="#84BE84" rx="3" ry="3" style="stroke:#038048;stroke-width:1.0;"/><text fill="#000000" font-family="sans-serif" font-size="11" lengthAdjust="spacing" textLength="57" x="441" y="197.5959">rootNode()</text><ellipse cx="432" cy="207.8189" fill="#84BE84" rx="3" ry="3" style="stroke:#038048;stroke-width:1.0;"/><text fill="#000000" font-family="sans-serif" font-size="11" lengthAdjust="spacing" textLength="46" x="441" y="212.5778">toValue()</text><ellipse cx="432" cy="222.8008" fill="#84BE84" rx="3" ry="3" style="stroke:#038048;stroke-width:1.0;"/><text fill="#000000" font-family="sans-serif" font-size="11" lengthAdjust="spacing" textLength="51" x="441" y="227.5597">toObject()</text><ellipse cx="432" cy="237.7827" fill="#84BE84" rx="3" ry="3" style="stroke:#038048;stroke-width:1.0;"/><text fill="#000000" font-family="sans-serif" font-size="11" lengthAdjust="spacing" textLength="97" x="441" y="242.5416">toNodeReference()</text><ellipse cx="432" cy="252.7645" fill="#84BE84" rx="3" ry="3" style="stroke:#038048;stroke-width:1.0;"/><text fill="#000000" font-family="sans-serif" font-size="11" lengthAdjust="spacing" textLength="92" x="441" y="257.5235">toDerivedObject()</text><ellipse cx="432" cy="267.7464" fill="#84BE84" rx="3" ry="3" style="stroke:#038048;stroke-width:1.0;"/><text fill="#000000" font-family="sans-serif" font-size="11" lengthAdjust="spacing" textLength="57" x="441" y="272.5053">nodePath()</text><ellipse cx="432" cy="282.7283" fill="#84BE84" rx="3" ry="3" style="stroke:#038048;stroke-width:1.0;"/><text fill="#000000" font-family="sans-serif" font-size="11" lengthAdjust="spacing" textLength="119" x="441" y="287.4872">nodeAtPath(nodePath)</text><!--MD5=[575426ad72e9f3f108a63f8dae908128]
class ConfigValueNode--><rect fill="#FEFECE" filter="url(#f1898hvl8t21n4)" height="48" id="ConfigValueNode" style="stroke:#A80036;stroke-width:1.5;" width="129" x="7" y="355"/><ellipse cx="22" cy="371" fill="#ADD1B2" rx="11" ry="11" style="stroke:#A80036;stroke-width:1.0;"/><path d="M21.4688,377.9219 Q19.7188,377.9219 18.5781,377.1875 Q17.4531,376.4375 16.8906,375.0938 Q16.3438,373.7344 16.3438,371.9375 Q16.3438,369.9063 17,368.4531 Q17.6563,367 18.9375,366.2188 Q20.2188,365.4375 22.0938,365.4375 Q22.9844,365.4375 23.6563,365.625 Q24.3281,365.7969 25.0156,366.1406 L24.2031,368.1563 Q23.5781,367.8438 23.0313,367.7188 Q22.5,367.5938 22.0156,367.5938 Q20.8438,367.5938 20.1406,368.125 Q19.4375,368.6563 19.1406,369.6094 Q18.8438,370.5625 18.8438,371.8281 Q18.8438,373.8438 19.5625,374.8125 Q20.2813,375.7656 21.875,375.7656 Q22.4688,375.7656 23.0938,375.6094 Q23.7188,375.4531 24.5469,375.0781 L24.5469,377.2969 Q23.8125,377.6094 23.0156,377.7656 Q22.2344,377.9219 21.4688,377.9219 Z " fill="#000000"/><text fill="#000000" font-family="sans-serif" font-size="12" lengthAdjust="spacing" textLength="97" x="36" y="375.656">ConfigValueNode</text><line style="stroke:#A80036;stroke-width:1.5;" x1="8" x2="135" y1="387" y2="387"/><line style="stroke:#A80036;stroke-width:1.5;" x1="8" x2="135" y1="395" y2="395"/><!--MD5=[a2f695ec1be2d699b5668dd356d59d23]
class ConfigObjectNode--><rect fill="#FEFECE" filter="url(#f1898hvl8t21n4)" height="48" id="ConfigObjectNode" style="stroke:#A80036;stroke-width:1.5;" width="134" x="171.5" y="355"/><ellipse cx="186.5" cy="371" fill="#ADD1B2" rx="11" ry="11" style="stroke:#A80036;stroke-width:1.0;"/><path d="M185.9688,377.9219 Q184.2188,377.9219 183.0781,377.1875 Q181.9531,376.4375 181.3906,375.0938 Q180.8438,373.7344 180.8438,371.9375 Q180.8438,369.9063 181.5,368.4531 Q182.1563,367 183.4375,366.2188 Q184.7188,365.4375 186.5938,365.4375 Q187.4844,365.4375 188.1563,365.625 Q188.8281,365.7969 189.5156,366.1406 L188.7031,368.1563 Q188.0781,367.8438 187.5313,367.7188 Q187,367.5938 186.5156,367.5938 Q185.3438,367.5938 184.6406,368.125 Q183.9375,368.6563 183.6406,369.6094 Q183.3438,370.5625 183.3438,371.8281 Q183.3438,373.8438 184.0625,374.8125 Q184.7813,375.7656 186.375,375.7656 Q186.9688,375.7656 187.5938,375.6094 Q188.2188,375.4531 189.0469,375.0781 L189.0469,377.2969 Q188.3125,377.6094 187.5156,377.7656 Q186.7344,377.9219 185.9688,377.9219 Z " fill="#000000"/><text fill="#000000" font-family="sans-serif" font-size="12" lengthAdjust="spacing" textLength="102" x="200.5" y="375.656">ConfigObjectNode</text><line style="stroke:#A80036;stroke-width:1.5;" x1="172.5" x2="304.5" y1="387" y2="387"/><line style="stroke:#A80036;stroke-width:1.5;" x1="172.5" x2="304.5" y1="395" y2="395"/><!--MD5=[a332cbfa3e8f12cc0803e6ca1d141211]
class ConfigArrayNode--><rect fill="#FEFECE" filter="url(#f1898hvl8t21n4)" height="48" id="ConfigArrayNode" style="stroke:#A80036;stroke-width:1.5;" width="129" x="341" y="355"/><ellipse cx="356" cy="371" fill="#ADD1B2" rx="11" ry="11" style="stroke:#A80036;stroke-width:1.0;"/><path d="M355.4688,377.9219 Q353.7188,377.9219 352.5781,377.1875 Q351.4531,376.4375 350.8906,375.0938 Q350.3438,373.7344 350.3438,371.9375 Q350.3438,369.9063 351,368.4531 Q351.6563,367 352.9375,366.2188 Q354.2188,365.4375 356.0938,365.4375 Q356.9844,365.4375 357.6563,365.625 Q358.3281,365.7969 359.0156,366.1406 L358.2031,368.1563 Q357.5781,367.8438 357.0313,367.7188 Q356.5,367.5938 356.0156,367.5938 Q354.8438,367.5938 354.1406,368.125 Q353.4375,368.6563 353.1406,369.6094 Q352.8438,370.5625 352.8438,371.8281 Q352.8438,373.8438 353.5625,374.8125 Q354.2813,375.7656 355.875,375.7656 Q356.4688,375.7656 357.0938,375.6094 Q357.7188,375.4531 358.5469,375.0781 L358.5469,377.2969 Q357.8125,377.6094 357.0156,377.7656 Q356.2344,377.9219 355.4688,377.9219 Z " fill="#000000"/><text fill="#000000" font-family="sans-serif" font-size="12" lengthAdjust="spacing" textLength="97" x="370" y="375.656">ConfigArrayNode</text><line style="stroke:#A80036;stroke-width:1.5;" x1="342" x2="469" y1="387" y2="387"/><line style="stroke:#A80036;stroke-width:1.5;" x1="342" x2="469" y1="395" y2="395"/><!--MD5=[0d99208a4a4f69f412063ae7199684d3]
class ConfigNodeReference--><rect fill="#FEFECE" filter="url(#f1898hvl8t21n4)" height="48" id="ConfigNodeReference" style="stroke:#A80036;stroke-width:1.5;" width="155" x="505" y="355"/><ellipse cx="520" cy="371" fill="#ADD1B2" rx="11" ry="11" style="stroke:#A80036;stroke-width:1.0;"/><path d="M519.4688,377.9219 Q517.7188,377.9219 516.5781,377.1875 Q515.4531,376.4375 514.8906,375.0938 Q514.3438,373.7344 514.3438,371.9375 Q514.3438,369.9063 515,368.4531 Q515.6563,367 516.9375,366.2188 Q518.2188,365.4375 520.0938,365.4375 Q520.9844,365.4375 521.6563,365.625 Q522.3281,365.7969 523.0156,366.1406 L522.2031,368.1563 Q521.5781,367.8438 521.0313,367.7188 Q520.5,367.5938 520.0156,367.5938 Q518.8438,367.5938 518.1406,368.125 Q517.4375,368.6563 517.1406,369.6094 Q516.8438,370.5625 516.8438,371.8281 Q516.8438,373.8438 517.5625,374.8125 Q518.2813,375.7656 519.875,375.7656 Q520.4688,375.7656 521.0938,375.6094 Q521.7188,375.4531 522.5469,375.0781 L522.5469,377.2969 Q521.8125,377.6094 521.0156,377.7656 Q520.2344,377.9219 519.4688,377.9219 Z " fill="#000000"/><text fill="#000000" font-family="sans-serif" font-size="12" lengthAdjust="spacing" textLength="123" x="534" y="375.656">ConfigNodeReference</text><line style="stroke:#A80036;stroke-width:1.5;" x1="506" x2="659" y1="387" y2="387"/><line style="stroke:#A80036;stroke-width:1.5;" x1="506" x2="659" y1="395" y2="395"/><!--MD5=[180588c6ae06b7db2af095e0031c0ec7]
class ConfigDerivedObjectNode--><rect fill="#FEFECE" filter="url(#f1898hvl8t21n4)" height="48" id="ConfigDerivedObjectNode" style="stroke:#A80036;stroke-width:1.5;" width="178" x="695.5" y="355"/><ellipse cx="710.5" cy="371" fill="#ADD1B2" rx="11" ry="11" style="stroke:#A80036;stroke-width:1.0;"/><path d="M709.9688,377.9219 Q708.2188,377.9219 707.0781,377.1875 Q705.9531,376.4375 705.3906,375.0938 Q704.8438,373.7344 704.8438,371.9375 Q704.8438,369.9063 705.5,368.4531 Q706.1563,367 707.4375,366.2188 Q708.7188,365.4375 710.5938,365.4375 Q711.4844,365.4375 712.1563,365.625 Q712.8281,365.7969 713.5156,366.1406 L712.7031,368.1563 Q712.0781,367.8438 711.5313,367.7188 Q711,367.5938 710.5156,367.5938 Q709.3438,367.5938 708.6406,368.125 Q707.9375,368.6563 707.6406,369.6094 Q707.3438,370.5625 707.3438,371.8281 Q707.3438,373.8438 708.0625,374.8125 Q708.7813,375.7656 710.375,375.7656 Q710.9688,375.7656 711.5938,375.6094 Q712.2188,375.4531 713.0469,375.0781 L713.0469,377.2969 Q712.3125,377.6094 711.5156,377.7656 Q710.7344,377.9219 709.9688,377.9219 Z " fill="#000000"/><text fill="#000000" font-family="sans-serif" font-size="12" lengthAdjust="spacing" textLength="146" x="724.5" y="375.656">ConfigDerivedObjectNode</text><line style="stroke:#A80036;stroke-width:1.5;" x1="696.5" x2="872.5" y1="387" y2="387"/><line style="stroke:#A80036;stroke-width:1.5;" x1="696.5" x2="872.5" y1="395" y2="395"/><!--MD5=[eff292fbcbe482f9229f4ba7e78a31cc]
class ConfigDerivedArrayNode--><rect fill="#FEFECE" filter="url(#f1898hvl8t21n4)" height="48" id="ConfigDerivedArrayNode" style="stroke:#A80036;stroke-width:1.5;" width="173" x="909" y="355"/><ellipse cx="924" cy="371" fill="#ADD1B2" rx="11" ry="11" style="stroke:#A80036;stroke-width:1.0;"/><path d="M923.4688,377.9219 Q921.7188,377.9219 920.5781,377.1875 Q919.4531,376.4375 918.8906,375.0938 Q918.3438,373.7344 918.3438,371.9375 Q918.3438,369.9063 919,368.4531 Q919.6563,367 920.9375,366.2188 Q922.2188,365.4375 924.0938,365.4375 Q924.9844,365.4375 925.6563,365.625 Q926.3281,365.7969 927.0156,366.1406 L926.2031,368.1563 Q925.5781,367.8438 925.0313,367.7188 Q924.5,367.5938 924.0156,367.5938 Q922.8438,367.5938 922.1406,368.125 Q921.4375,368.6563 921.1406,369.6094 Q920.8438,370.5625 920.8438,371.8281 Q920.8438,373.8438 921.5625,374.8125 Q922.2813,375.7656 923.875,375.7656 Q924.4688,375.7656 925.0938,375.6094 Q925.7188,375.4531 926.5469,375.0781 L926.5469,377.2969 Q925.8125,377.6094 925.0156,377.7656 Q924.2344,377.9219 923.4688,377.9219 Z " fill="#000000"/><text fill="#000000" font-family="sans-serif" font-size="12" lengthAdjust="spacing" textLength="141" x="938" y="375.656">ConfigDerivedArrayNode</text><line style="stroke:#A80036;stroke-width:1.5;" x1="910" x2="1081" y1="387" y2="387"/><line style="stroke:#A80036;stroke-width:1.5;" x1="910" x2="1081" y1="395" y2="395"/><!--MD5=[9973ed0a6358e9ebd09e48a43a30127b]
reverse link ConfigNode to ConfigValueNode--><path codeLine="1" d="M403.21,200.36 C314.18,248.04 181.94,318.85 114.48,354.98 " fill="none" id="ConfigNode-backto-ConfigValueNode" style="stroke:#A80036;stroke-width:1.0;"/><polygon fill="none" points="400.02,194.12,420.96,190.85,406.63,206.46,400.02,194.12" style="stroke:#A80036;stroke-width:1.0;"/><!--MD5=[353fa94a07706ac34ceef480849d69a6]
reverse link ConfigNode to ConfigObjectNode--><path codeLine="2" d="M405.71,229.81 C356.14,273.74 297.68,325.55 264.66,354.81 " fill="none" id="ConfigNode-backto-ConfigObjectNode" style="stroke:#A80036;stroke-width:1.0;"/><polygon fill="none" points="401.16,224.49,420.77,216.46,410.44,234.96,401.16,224.49" style="stroke:#A80036;stroke-width:1.0;"/><!--MD5=[733ee1fda14b3234fce1f98c1430f716]
reverse link ConfigNode to ConfigArrayNode--><path codeLine="3" d="M430.47,313.86 C424.34,329.61 418.82,343.79 414.54,354.78 " fill="none" id="ConfigNode-backto-ConfigArrayNode" style="stroke:#A80036;stroke-width:1.0;"/><polygon fill="none" points="423.99,311.23,437.77,295.13,437.03,316.31,423.99,311.23" style="stroke:#A80036;stroke-width:1.0;"/><!--MD5=[87a872849f0e81dedf38434b5892eb7b]
reverse link ConfigNode to ConfigNodeReference--><path codeLine="4" d="M557.24,313.86 C563.44,329.61 569.03,343.79 573.36,354.78 " fill="none" id="ConfigNode-backto-ConfigNodeReference" style="stroke:#A80036;stroke-width:1.0;"/><polygon fill="none" points="550.68,316.3,549.87,295.13,563.71,311.17,550.68,316.3" style="stroke:#A80036;stroke-width:1.0;"/><!--MD5=[199aeddf56979ecc1511136239c0505d]
reverse link ConfigNode to ConfigDerivedObjectNode--><path codeLine="5" d="M582.32,220.98 C641.03,266.58 714.34,323.52 754.59,354.77 " fill="none" id="ConfigNode-backto-ConfigDerivedObjectNode" style="stroke:#A80036;stroke-width:1.0;"/><polygon fill="none" points="577.68,226.24,566.18,208.45,586.27,215.19,577.68,226.24" style="stroke:#A80036;stroke-width:1.0;"/><!--MD5=[67c080b02672b09a9a7787ba6ac764aa]
reverse link ConfigNode to ConfigDerivedArrayNode--><path codeLine="6" d="M584.47,192.95 C689.77,240.36 859.54,316.79 944.14,354.88 " fill="none" id="ConfigNode-backto-ConfigDerivedArrayNode" style="stroke:#A80036;stroke-width:1.0;"/><polygon fill="none" points="581.59,199.33,566.23,184.74,587.34,186.57,581.59,199.33" style="stroke:#A80036;stroke-width:1.0;"/><!--MD5=[7acc63f87dd2cff9f0faff89586ee68d]
@startuml ConfigNode
ConfigNode <|- - ConfigValueNode
ConfigNode <|- - ConfigObjectNode
ConfigNode <|- - ConfigArrayNode
ConfigNode <|- - ConfigNodeReference
ConfigNode <|- - ConfigDerivedObjectNode
ConfigNode <|- - ConfigDerivedArrayNode

abstract class ConfigNode {
    {abstract} +clone()
    {abstract} +type()
    +isValue()
    +isObject()
    +isNodeReference()
    +isDerivedObject()
    +isRoot()
    +parent()
    +setParent(parent)
    +rootNode()
    +toValue()
    +toObject()
    +toNodeReference()
    +toDerivedObject()
    +nodePath()
    +nodeAtPath(nodePath)
}
@enduml

PlantUML version 1.2021.7(Sun May 23 14:40:07 CEST 2021)
(GPL source distribution)
Java Runtime: OpenJDK Runtime Environment
JVM: OpenJDK 64-Bit Server VM
Default Encoding: UTF-8
Language: en
Country: US
--></g></svg>