<?xml version="1.0" encoding="UTF-8" standalone="no"?><svg xmlns="http://www.w3.org/2000/svg" xmlns:xlink="http://www.w3.org/1999/xlink" contentScriptType="application/ecmascript" contentStyleType="text/css" height="266px" preserveAspectRatio="none" style="width:199px;height:266px;background:#FFFFFF;" version="1.1" viewBox="0 0 199 266" width="199px" zoomAndPan="magnify"><defs><filter height="300%" id="fyhkd0gcioynb" width="300%" x="-1" y="-1"><feGaussianBlur result="blurOut" stdDeviation="2.0"/><feColorMatrix in="blurOut" result="blurOut2" type="matrix" values="0 0 0 0 0 0 0 0 0 0 0 0 0 0 0 0 0 0 .4 0"/><feOffset dx="4.0" dy="4.0" in="blurOut2" result="blurOut3"/><feBlend in="SourceGraphic" in2="blurOut3" mode="normal"/></filter></defs><g><!--MD5=[a7a276926f9c52ae47a6f83d030a5f62]
class ConfigNode--><rect codeLine="3" fill="#FEFECE" filter="url(#fyhkd0gcioynb)" height="48" id="ConfigNode" style="stroke:#A80036;stroke-width:1.5;" width="95" x="48.5" y="7"/><ellipse cx="63.5" cy="23" fill="#A9DCDF" rx="11" ry="11" style="stroke:#A80036;stroke-width:1.0;"/><path d="M58.6719,28.75 L62.0156,16.5625 L65.1563,16.5625 L68.5313,28.75 L66.0625,28.75 L65.3281,25.7344 L61.8125,25.7344 L61.0625,28.75 L58.6719,28.75 Z M63.0781,20.7031 L62.3281,23.7031 L64.8438,23.7031 L64.125,20.7031 Q63.9844,20.125 63.8594,19.5781 Q63.7344,19.0156 63.5938,18.4375 Q63.4844,19.0156 63.3438,19.5781 Q63.2031,20.125 63.0781,20.7031 Z " fill="#000000"/><text fill="#000000" font-family="sans-serif" font-size="12" font-style="italic" lengthAdjust="spacing" textLength="63" x="77.5" y="27.656">ConfigNode</text><line style="stroke:#A80036;stroke-width:1.5;" x1="49.5" x2="142.5" y1="39" y2="39"/><line style="stroke:#A80036;stroke-width:1.5;" x1="49.5" x2="142.5" y1="47" y2="47"/><!--MD5=[180588c6ae06b7db2af095e0031c0ec7]
class ConfigDerivedObjectNode--><rect codeLine="5" fill="#FEFECE" filter="url(#fyhkd0gcioynb)" height="137.8913" id="ConfigDerivedObjectNode" style="stroke:#A80036;stroke-width:1.5;" width="178" x="7" y="115"/><ellipse cx="22" cy="131" fill="#ADD1B2" rx="11" ry="11" style="stroke:#A80036;stroke-width:1.0;"/><path d="M21.4688,137.9219 Q19.7188,137.9219 18.5781,137.1875 Q17.4531,136.4375 16.8906,135.0938 Q16.3438,133.7344 16.3438,131.9375 Q16.3438,129.9063 17,128.4531 Q17.6563,127 18.9375,126.2188 Q20.2188,125.4375 22.0938,125.4375 Q22.9844,125.4375 23.6563,125.625 Q24.3281,125.7969 25.0156,126.1406 L24.2031,128.1563 Q23.5781,127.8438 23.0313,127.7188 Q22.5,127.5938 22.0156,127.5938 Q20.8438,127.5938 20.1406,128.125 Q19.4375,128.6563 19.1406,129.6094 Q18.8438,130.5625 18.8438,131.8281 Q18.8438,133.8438 19.5625,134.8125 Q20.2813,135.7656 21.875,135.7656 Q22.4688,135.7656 23.0938,135.6094 Q23.7188,135.4531 24.5469,135.0781 L24.5469,137.2969 Q23.8125,137.6094 23.0156,137.7656 Q22.2344,137.9219 21.4688,137.9219 Z " fill="#000000"/><text fill="#000000" font-family="sans-serif" font-size="12" lengthAdjust="spacing" textLength="146" x="36" y="135.656">ConfigDerivedObjectNode</text><line style="stroke:#A80036;stroke-width:1.5;" x1="8" x2="184" y1="147" y2="147"/><line style="stroke:#A80036;stroke-width:1.5;" x1="8" x2="184" y1="155" y2="155"/><ellipse cx="18" cy="166" fill="#84BE84" rx="3" ry="3" style="stroke:#038048;stroke-width:1.0;"/><text fill="#000000" font-family="sans-serif" font-size="11" font-style="italic" lengthAdjust="spacing" textLength="31" x="27" y="170.7589">clone()</text><ellipse cx="18" cy="180.9819" fill="#84BE84" rx="3" ry="3" style="stroke:#038048;stroke-width:1.0;"/><text fill="#000000" font-family="sans-serif" font-size="11" font-style="italic" lengthAdjust="spacing" textLength="26" x="27" y="185.7408">type()</text><ellipse cx="18" cy="195.9638" fill="#84BE84" rx="3" ry="3" style="stroke:#038048;stroke-width:1.0;"/><text fill="#000000" font-family="sans-serif" font-size="11" lengthAdjust="spacing" textLength="35" x="27" y="200.7227">bases()</text><ellipse cx="18" cy="210.9457" fill="#84BE84" rx="3" ry="3" style="stroke:#038048;stroke-width:1.0;"/><text fill="#000000" font-family="sans-serif" font-size="11" lengthAdjust="spacing" textLength="79" x="27" y="215.7046">setBases(bases)</text><ellipse cx="18" cy="225.9276" fill="#84BE84" rx="3" ry="3" style="stroke:#038048;stroke-width:1.0;"/><text fill="#000000" font-family="sans-serif" font-size="11" lengthAdjust="spacing" textLength="39" x="27" y="230.6865">config()</text><ellipse cx="18" cy="240.9094" fill="#84BE84" rx="3" ry="3" style="stroke:#038048;stroke-width:1.0;"/><text fill="#000000" font-family="sans-serif" font-size="11" lengthAdjust="spacing" textLength="89" x="27" y="245.6684">setConfig(config)</text><!--MD5=[199aeddf56979ecc1511136239c0505d]
reverse link ConfigNode to ConfigDerivedObjectNode--><path codeLine="1" d="M96,75.56 C96,87.87 96,101.57 96,114.96 " fill="none" id="ConfigNode-backto-ConfigDerivedObjectNode" style="stroke:#A80036;stroke-width:1.0;"/><polygon fill="none" points="89,75.26,96,55.26,103,75.26,89,75.26" style="stroke:#A80036;stroke-width:1.0;"/><!--MD5=[7727947c4037af4e1fcd3b543aea89c9]
@startuml ConfigDerivedObjectNode
ConfigNode <|- - ConfigDerivedObjectNode

abstract class ConfigNode

class ConfigDerivedObjectNode {
    {abstract} +clone()
    {abstract} +type()
    +bases()
    +setBases(bases)
    +config()
    +setConfig(config)
}
@enduml

PlantUML version 1.2021.7(Sun May 23 14:40:07 CEST 2021)
(GPL source distribution)
Java Runtime: OpenJDK Runtime Environment
JVM: OpenJDK 64-Bit Server VM
Default Encoding: UTF-8
Language: en
Country: US
--></g></svg>