<?xml version="1.0" encoding="UTF-8" standalone="no"?><svg xmlns="http://www.w3.org/2000/svg" xmlns:xlink="http://www.w3.org/1999/xlink" contentScriptType="application/ecmascript" contentStyleType="text/css" height="479px" preserveAspectRatio="none" style="width:631px;height:479px;background:#FFFFFF;" version="1.1" viewBox="0 0 631 479" width="631px" zoomAndPan="magnify"><defs><filter height="300%" id="f1tj0jktqrintw" width="300%" x="-1" y="-1"><feGaussianBlur result="blurOut" stdDeviation="2.0"/><feColorMatrix in="blurOut" result="blurOut2" type="matrix" values="0 0 0 0 0 0 0 0 0 0 0 0 0 0 0 0 0 0 .4 0"/><feOffset dx="4.0" dy="4.0" in="blurOut2" result="blurOut3"/><feBlend in="SourceGraphic" in2="blurOut3" mode="normal"/></filter></defs><g><!--MD5=[2c327dced06477d2f323ad5608492ab8]
class ConfigReaderBase--><rect codeLine="4" fill="#FEFECE" filter="url(#f1tj0jktqrintw)" height="152.8732" id="ConfigReaderBase" style="stroke:#A80036;stroke-width:1.5;" width="488" x="68" y="160"/><ellipse cx="258.75" cy="176" fill="#A9DCDF" rx="11" ry="11" style="stroke:#A80036;stroke-width:1.0;"/><path d="M253.9219,181.75 L257.2656,169.5625 L260.4063,169.5625 L263.7813,181.75 L261.3125,181.75 L260.5781,178.7344 L257.0625,178.7344 L256.3125,181.75 L253.9219,181.75 Z M258.3281,173.7031 L257.5781,176.7031 L260.0938,176.7031 L259.375,173.7031 Q259.2344,173.125 259.1094,172.5781 Q258.9844,172.0156 258.8438,171.4375 Q258.7344,172.0156 258.5938,172.5781 Q258.4531,173.125 258.3281,173.7031 Z " fill="#000000"/><text fill="#000000" font-family="sans-serif" font-size="12" font-style="italic" lengthAdjust="spacing" textLength="98" x="279.25" y="180.656">ConfigReaderBase</text><line style="stroke:#A80036;stroke-width:1.5;" x1="69" x2="555" y1="192" y2="192"/><line style="stroke:#A80036;stroke-width:1.5;" x1="69" x2="555" y1="200" y2="200"/><ellipse cx="79" cy="211" fill="#84BE84" rx="3" ry="3" style="stroke:#038048;stroke-width:1.0;"/><text fill="#000000" font-family="sans-serif" font-size="11" lengthAdjust="spacing" textLength="166" x="88" y="215.7589">referenceResolutionMaxCycles()</text><ellipse cx="79" cy="225.9819" fill="#84BE84" rx="3" ry="3" style="stroke:#038048;stroke-width:1.0;"/><text fill="#000000" font-family="sans-serif" font-size="11" lengthAdjust="spacing" textLength="343" x="88" y="230.7408">setReferenceResolutionMaxCycles(referenceResolutionMaxCycles)</text><ellipse cx="79" cy="240.9638" fill="#84BE84" rx="3" ry="3" style="stroke:#038048;stroke-width:1.0;"/><text fill="#000000" font-family="sans-serif" font-size="11" font-style="italic" lengthAdjust="spacing" textLength="462" x="88" y="245.7227">read(workingDir, destinationNodePath, otherParameters, externalConfigs, environmentVariables)</text><polygon fill="#FFFF44" points="79,250.9457,83,254.9457,79,258.9457,75,254.9457" style="stroke:#B38D22;stroke-width:1.0;"/><text fill="#000000" font-family="sans-serif" font-size="11" lengthAdjust="spacing" text-decoration="underline" textLength="113" x="88" y="260.7046">isFullyResolved(node)</text><polygon fill="#FFFF44" points="79,265.9276,83,269.9276,79,273.9276,75,269.9276" style="stroke:#B38D22;stroke-width:1.0;"/><text fill="#000000" font-family="sans-serif" font-size="11" lengthAdjust="spacing" text-decoration="underline" textLength="149" x="88" y="275.6865">unresolvedReferences(node)</text><polygon fill="#FFFF44" points="79,280.9094,83,284.9094,79,288.9094,75,284.9094" style="stroke:#B38D22;stroke-width:1.0;"/><text fill="#000000" font-family="sans-serif" font-size="11" lengthAdjust="spacing" text-decoration="underline" textLength="223" x="88" y="290.6684">resolveReferences(externalConfigs, config)</text><polygon fill="#FFFF44" points="79,295.8913,83,299.8913,79,303.8913,75,299.8913" style="stroke:#B38D22;stroke-width:1.0;"/><text fill="#000000" font-family="sans-serif" font-size="11" lengthAdjust="spacing" text-decoration="underline" textLength="337" x="88" y="305.6502">transformConfig(config, sourceNodePath, destinationNodePath)</text><!--MD5=[cf9e202def5d840406cf1e9864506dae]
class ConfigReader--><rect codeLine="14" fill="#FEFECE" filter="url(#f1tj0jktqrintw)" height="92.9457" id="ConfigReader" style="stroke:#A80036;stroke-width:1.5;" width="610" x="7" y="373"/><ellipse cx="269.75" cy="389" fill="#ADD1B2" rx="11" ry="11" style="stroke:#A80036;stroke-width:1.0;"/><path d="M269.2188,395.9219 Q267.4688,395.9219 266.3281,395.1875 Q265.2031,394.4375 264.6406,393.0938 Q264.0938,391.7344 264.0938,389.9375 Q264.0938,387.9063 264.75,386.4531 Q265.4063,385 266.6875,384.2188 Q267.9688,383.4375 269.8438,383.4375 Q270.7344,383.4375 271.4063,383.625 Q272.0781,383.7969 272.7656,384.1406 L271.9531,386.1563 Q271.3281,385.8438 270.7813,385.7188 Q270.25,385.5938 269.7656,385.5938 Q268.5938,385.5938 267.8906,386.125 Q267.1875,386.6563 266.8906,387.6094 Q266.5938,388.5625 266.5938,389.8281 Q266.5938,391.8438 267.3125,392.8125 Q268.0313,393.7656 269.625,393.7656 Q270.2188,393.7656 270.8438,393.6094 Q271.4688,393.4531 272.2969,393.0781 L272.2969,395.2969 Q271.5625,395.6094 270.7656,395.7656 Q269.9844,395.9219 269.2188,395.9219 Z " fill="#000000"/><text fill="#000000" font-family="sans-serif" font-size="12" lengthAdjust="spacing" textLength="76" x="290.25" y="393.656">ConfigReader</text><line style="stroke:#A80036;stroke-width:1.5;" x1="8" x2="616" y1="405" y2="405"/><line style="stroke:#A80036;stroke-width:1.5;" x1="8" x2="616" y1="413" y2="413"/><ellipse cx="18" cy="424" fill="#84BE84" rx="3" ry="3" style="stroke:#038048;stroke-width:1.0;"/><text fill="#000000" font-family="sans-serif" font-size="11" lengthAdjust="spacing" textLength="557" x="27" y="428.7589">read(filePath, workingDir, sourceNodePath, destinationNodePath, externalConfigs, environmentVariables)</text><ellipse cx="18" cy="438.9819" fill="#84BE84" rx="3" ry="3" style="stroke:#038048;stroke-width:1.0;"/><text fill="#000000" font-family="sans-serif" font-size="11" lengthAdjust="spacing" textLength="584" x="27" y="443.7408">read(configObject, workingDir, sourceNodePath, destinationNodePath, externalConfigs, environmentVariables)</text><ellipse cx="18" cy="453.9638" fill="#84BE84" rx="3" ry="3" style="stroke:#038048;stroke-width:1.0;"/><text fill="#000000" font-family="sans-serif" font-size="11" lengthAdjust="spacing" textLength="513" x="27" y="458.7227">read(workingDir, destinationNodePath, otherParameters, externalConfigs, environmentVariables)</text><!--MD5=[77208f6e28b8630fb34361fdb3d1c093]
class ConfigReaderRegistry--><rect codeLine="20" fill="#FEFECE" filter="url(#f1tj0jktqrintw)" height="92.9457" id="ConfigReaderRegistry" style="stroke:#A80036;stroke-width:1.5;" width="603" x="10.5" y="7"/><ellipse cx="247.25" cy="23" fill="#ADD1B2" rx="11" ry="11" style="stroke:#A80036;stroke-width:1.0;"/><path d="M246.7188,29.9219 Q244.9688,29.9219 243.8281,29.1875 Q242.7031,28.4375 242.1406,27.0938 Q241.5938,25.7344 241.5938,23.9375 Q241.5938,21.9063 242.25,20.4531 Q242.9063,19 244.1875,18.2188 Q245.4688,17.4375 247.3438,17.4375 Q248.2344,17.4375 248.9063,17.625 Q249.5781,17.7969 250.2656,18.1406 L249.4531,20.1563 Q248.8281,19.8438 248.2813,19.7188 Q247.75,19.5938 247.2656,19.5938 Q246.0938,19.5938 245.3906,20.125 Q244.6875,20.6563 244.3906,21.6094 Q244.0938,22.5625 244.0938,23.8281 Q244.0938,25.8438 244.8125,26.8125 Q245.5313,27.7656 247.125,27.7656 Q247.7188,27.7656 248.3438,27.6094 Q248.9688,27.4531 249.7969,27.0781 L249.7969,29.2969 Q249.0625,29.6094 248.2656,29.7656 Q247.4844,29.9219 246.7188,29.9219 Z " fill="#000000"/><text fill="#000000" font-family="sans-serif" font-size="12" lengthAdjust="spacing" textLength="121" x="267.75" y="27.656">ConfigReaderRegistry</text><line style="stroke:#A80036;stroke-width:1.5;" x1="11.5" x2="612.5" y1="39" y2="39"/><line style="stroke:#A80036;stroke-width:1.5;" x1="11.5" x2="612.5" y1="47" y2="47"/><ellipse cx="21.5" cy="58" fill="#84BE84" rx="3" ry="3" style="stroke:#038048;stroke-width:1.0;"/><text fill="#000000" font-family="sans-serif" font-size="11" lengthAdjust="spacing" text-decoration="underline" textLength="49" x="30.5" y="62.7589">instance()</text><ellipse cx="21.5" cy="72.9819" fill="#84BE84" rx="3" ry="3" style="stroke:#038048;stroke-width:1.0;"/><text fill="#000000" font-family="sans-serif" font-size="11" lengthAdjust="spacing" textLength="218" x="30.5" y="77.7408">registerConfigReader(type, configReader)</text><ellipse cx="21.5" cy="87.9638" fill="#84BE84" rx="3" ry="3" style="stroke:#038048;stroke-width:1.0;"/><text fill="#000000" font-family="sans-serif" font-size="11" lengthAdjust="spacing" textLength="577" x="30.5" y="92.7227">readConfig(type, workingDir, destinationNodePath, otherParameters, externalConfigs, environmentVariables)</text><!--MD5=[26f634447b80be5a3757e98e2c01fca6]
reverse link ConfigReaderBase to ConfigReader--><path codeLine="1" d="M312,333.32 C312,347.07 312,360.65 312,372.79 " fill="none" id="ConfigReaderBase-backto-ConfigReader" style="stroke:#A80036;stroke-width:1.0;"/><polygon fill="none" points="305,333.21,312,313.21,319,333.21,305,333.21" style="stroke:#A80036;stroke-width:1.0;"/><!--MD5=[5e0c03f4ea7430c6926af8976e9e9d64]
reverse link ConfigReaderRegistry to ConfigReaderBase--><path codeLine="2" d="M312,113.39 C312,128.23 312,144.37 312,159.91 " fill="none" id="ConfigReaderRegistry-backto-ConfigReaderBase" style="stroke:#A80036;stroke-width:1.0;"/><polygon fill="#A80036" points="312,100.17,308,106.17,312,112.17,316,106.17,312,100.17" style="stroke:#A80036;stroke-width:1.0;"/><!--MD5=[864f1ac8822572cfea57be93f6170644]
@startuml ConfigReader
ConfigReaderBase <|- - ConfigReader
ConfigReaderRegistry *- - ConfigReaderBase

abstract class ConfigReaderBase {
    +referenceResolutionMaxCycles()
    +setReferenceResolutionMaxCycles(referenceResolutionMaxCycles)
    {abstract} +read(workingDir, destinationNodePath, otherParameters, externalConfigs, environmentVariables)
    {static} #isFullyResolved(node)
    {static} #unresolvedReferences(node)
    {static} #resolveReferences(externalConfigs, config)
    {static} #transformConfig(config, sourceNodePath, destinationNodePath)
}

class ConfigReader {
    +read(filePath, workingDir, sourceNodePath, destinationNodePath, externalConfigs, environmentVariables)
    +read(configObject, workingDir, sourceNodePath, destinationNodePath, externalConfigs, environmentVariables)
    +read(workingDir, destinationNodePath, otherParameters, externalConfigs, environmentVariables)
}

class ConfigReaderRegistry {
    {static} +instance()
    +registerConfigReader(type, configReader)
    +readConfig(type, workingDir, destinationNodePath, otherParameters, externalConfigs, environmentVariables)
}
@enduml

PlantUML version 1.2021.7(Sun May 23 14:40:07 CEST 2021)
(GPL source distribution)
Java Runtime: OpenJDK Runtime Environment
JVM: OpenJDK 64-Bit Server VM
Default Encoding: UTF-8
Language: en
Country: US
--></g></svg>