<?xml version="1.0" encoding="UTF-8" standalone="no"?><svg xmlns="http://www.w3.org/2000/svg" xmlns:xlink="http://www.w3.org/1999/xlink" contentScriptType="application/ecmascript" contentStyleType="text/css" height="447px" preserveAspectRatio="none" style="width:620px;height:447px;" version="1.1" viewBox="0 0 620 447" width="620px" zoomAndPan="magnify"><defs><filter height="300%" id="f1h9r0pc9b9vjf" width="300%" x="-1" y="-1"><feGaussianBlur result="blurOut" stdDeviation="2.0"/><feColorMatrix in="blurOut" result="blurOut2" type="matrix" values="0 0 0 0 0 0 0 0 0 0 0 0 0 0 0 0 0 0 .4 0"/><feOffset dx="4.0" dy="4.0" in="blurOut2" result="blurOut3"/><feBlend in="SourceGraphic" in2="blurOut3" mode="normal"/></filter></defs><g><!--MD5=[2c327dced06477d2f323ad5608492ab8]
class ConfigReaderBase--><rect fill="#FEFECE" filter="url(#f1h9r0pc9b9vjf)" height="152.8732" id="ConfigReaderBase" style="stroke: #A80036; stroke-width: 1.5;" width="488" x="63.5" y="161"/><ellipse cx="254.25" cy="177" fill="#A9DCDF" rx="11" ry="11" style="stroke: #A80036; stroke-width: 1.0;"/><path d="M249.4219,182.75 L252.7656,170.5625 L255.9063,170.5625 L259.2813,182.75 L256.8125,182.75 L256.0781,179.7344 L252.5625,179.7344 L251.8125,182.75 L249.4219,182.75 Z M253.8281,174.7031 L253.0781,177.7031 L255.5938,177.7031 L254.875,174.7031 Q254.7344,174.125 254.6094,173.5781 Q254.4844,173.0156 254.3438,172.4375 Q254.2344,173.0156 254.0938,173.5781 Q253.9531,174.125 253.8281,174.7031 Z "/><text fill="#000000" font-family="sans-serif" font-size="12" font-style="italic" lengthAdjust="spacingAndGlyphs" textLength="98" x="274.75" y="181.656">ConfigReaderBase</text><line style="stroke: #A80036; stroke-width: 1.5;" x1="64.5" x2="550.5" y1="193" y2="193"/><line style="stroke: #A80036; stroke-width: 1.5;" x1="64.5" x2="550.5" y1="201" y2="201"/><ellipse cx="74.5" cy="212" fill="#84BE84" rx="3" ry="3" style="stroke: #038048; stroke-width: 1.0;"/><text fill="#000000" font-family="sans-serif" font-size="11" lengthAdjust="spacingAndGlyphs" textLength="166" x="83.5" y="216.7589">referenceResolutionMaxCycles()</text><ellipse cx="74.5" cy="226.9819" fill="#84BE84" rx="3" ry="3" style="stroke: #038048; stroke-width: 1.0;"/><text fill="#000000" font-family="sans-serif" font-size="11" lengthAdjust="spacingAndGlyphs" textLength="343" x="83.5" y="231.7408">setReferenceResolutionMaxCycles(referenceResolutionMaxCycles)</text><ellipse cx="74.5" cy="241.9638" fill="#84BE84" rx="3" ry="3" style="stroke: #038048; stroke-width: 1.0;"/><text fill="#000000" font-family="sans-serif" font-size="11" font-style="italic" lengthAdjust="spacingAndGlyphs" textLength="462" x="83.5" y="246.7227">read(workingDir, destinationNodePath, otherParameters, externalConfigs, environmentVariables)</text><polygon fill="#FFFF44" points="74.5,251.9457,78.5,255.9457,74.5,259.9457,70.5,255.9457" style="stroke: #B38D22; stroke-width: 1.0;"/><text fill="#000000" font-family="sans-serif" font-size="11" lengthAdjust="spacingAndGlyphs" text-decoration="underline" textLength="113" x="83.5" y="261.7046">isFullyResolved(node)</text><polygon fill="#FFFF44" points="74.5,266.9276,78.5,270.9276,74.5,274.9276,70.5,270.9276" style="stroke: #B38D22; stroke-width: 1.0;"/><text fill="#000000" font-family="sans-serif" font-size="11" lengthAdjust="spacingAndGlyphs" text-decoration="underline" textLength="149" x="83.5" y="276.6865">unresolvedReferences(node)</text><polygon fill="#FFFF44" points="74.5,281.9094,78.5,285.9094,74.5,289.9094,70.5,285.9094" style="stroke: #B38D22; stroke-width: 1.0;"/><text fill="#000000" font-family="sans-serif" font-size="11" lengthAdjust="spacingAndGlyphs" text-decoration="underline" textLength="223" x="83.5" y="291.6684">resolveReferences(externalConfigs, config)</text><polygon fill="#FFFF44" points="74.5,296.8913,78.5,300.8913,74.5,304.8913,70.5,300.8913" style="stroke: #B38D22; stroke-width: 1.0;"/><text fill="#000000" font-family="sans-serif" font-size="11" lengthAdjust="spacingAndGlyphs" text-decoration="underline" textLength="337" x="83.5" y="306.6502">transformConfig(config, sourceNodePath, destinationNodePath)</text><!--MD5=[cf9e202def5d840406cf1e9864506dae]
class ConfigReader--><rect fill="#FEFECE" filter="url(#f1h9r0pc9b9vjf)" height="62.9819" id="ConfigReader" style="stroke: #A80036; stroke-width: 1.5;" width="583" x="16" y="374"/><ellipse cx="265.25" cy="390" fill="#ADD1B2" rx="11" ry="11" style="stroke: #A80036; stroke-width: 1.0;"/><path d="M264.7188,396.9219 Q262.9688,396.9219 261.8281,396.1875 Q260.7031,395.4375 260.1406,394.0938 Q259.5938,392.7344 259.5938,390.9375 Q259.5938,388.9063 260.25,387.4531 Q260.9063,386 262.1875,385.2188 Q263.4688,384.4375 265.3438,384.4375 Q266.2344,384.4375 266.9063,384.625 Q267.5781,384.7969 268.2656,385.1406 L267.4531,387.1563 Q266.8281,386.8438 266.2813,386.7188 Q265.75,386.5938 265.2656,386.5938 Q264.0938,386.5938 263.3906,387.125 Q262.6875,387.6563 262.3906,388.6094 Q262.0938,389.5625 262.0938,390.8281 Q262.0938,392.8438 262.8125,393.8125 Q263.5313,394.7656 265.125,394.7656 Q265.7188,394.7656 266.3438,394.6094 Q266.9688,394.4531 267.7969,394.0781 L267.7969,396.2969 Q267.0625,396.6094 266.2656,396.7656 Q265.4844,396.9219 264.7188,396.9219 Z "/><text fill="#000000" font-family="sans-serif" font-size="12" lengthAdjust="spacingAndGlyphs" textLength="76" x="285.75" y="394.656">ConfigReader</text><line style="stroke: #A80036; stroke-width: 1.5;" x1="17" x2="598" y1="406" y2="406"/><line style="stroke: #A80036; stroke-width: 1.5;" x1="17" x2="598" y1="414" y2="414"/><ellipse cx="27" cy="425" fill="#84BE84" rx="3" ry="3" style="stroke: #038048; stroke-width: 1.0;"/><text fill="#000000" font-family="sans-serif" font-size="11" lengthAdjust="spacingAndGlyphs" textLength="557" x="36" y="429.7589">read(filePath, workingDir, sourceNodePath, destinationNodePath, externalConfigs, environmentVariables)</text><!--MD5=[77208f6e28b8630fb34361fdb3d1c093]
class ConfigReaderRegistry--><rect fill="#FEFECE" filter="url(#f1h9r0pc9b9vjf)" height="92.9457" id="ConfigReaderRegistry" style="stroke: #A80036; stroke-width: 1.5;" width="603" x="6" y="8"/><ellipse cx="242.75" cy="24" fill="#ADD1B2" rx="11" ry="11" style="stroke: #A80036; stroke-width: 1.0;"/><path d="M242.2188,30.9219 Q240.4688,30.9219 239.3281,30.1875 Q238.2031,29.4375 237.6406,28.0938 Q237.0938,26.7344 237.0938,24.9375 Q237.0938,22.9063 237.75,21.4531 Q238.4063,20 239.6875,19.2188 Q240.9688,18.4375 242.8438,18.4375 Q243.7344,18.4375 244.4063,18.625 Q245.0781,18.7969 245.7656,19.1406 L244.9531,21.1563 Q244.3281,20.8438 243.7813,20.7188 Q243.25,20.5938 242.7656,20.5938 Q241.5938,20.5938 240.8906,21.125 Q240.1875,21.6563 239.8906,22.6094 Q239.5938,23.5625 239.5938,24.8281 Q239.5938,26.8438 240.3125,27.8125 Q241.0313,28.7656 242.625,28.7656 Q243.2188,28.7656 243.8438,28.6094 Q244.4688,28.4531 245.2969,28.0781 L245.2969,30.2969 Q244.5625,30.6094 243.7656,30.7656 Q242.9844,30.9219 242.2188,30.9219 Z "/><text fill="#000000" font-family="sans-serif" font-size="12" lengthAdjust="spacingAndGlyphs" textLength="121" x="263.25" y="28.656">ConfigReaderRegistry</text><line style="stroke: #A80036; stroke-width: 1.5;" x1="7" x2="608" y1="40" y2="40"/><line style="stroke: #A80036; stroke-width: 1.5;" x1="7" x2="608" y1="48" y2="48"/><ellipse cx="17" cy="59" fill="#84BE84" rx="3" ry="3" style="stroke: #038048; stroke-width: 1.0;"/><text fill="#000000" font-family="sans-serif" font-size="11" lengthAdjust="spacingAndGlyphs" text-decoration="underline" textLength="49" x="26" y="63.7589">instance()</text><ellipse cx="17" cy="73.9819" fill="#84BE84" rx="3" ry="3" style="stroke: #038048; stroke-width: 1.0;"/><text fill="#000000" font-family="sans-serif" font-size="11" lengthAdjust="spacingAndGlyphs" textLength="218" x="26" y="78.7408">registerConfigReader(type, configReader)</text><ellipse cx="17" cy="88.9638" fill="#84BE84" rx="3" ry="3" style="stroke: #038048; stroke-width: 1.0;"/><text fill="#000000" font-family="sans-serif" font-size="11" lengthAdjust="spacingAndGlyphs" textLength="577" x="26" y="93.7227">readConfig(type, workingDir, destinationNodePath, otherParameters, externalConfigs, environmentVariables)</text><!--MD5=[26f634447b80be5a3757e98e2c01fca6]
reverse link ConfigReaderBase to ConfigReader--><path d="M307.5,334.44 C307.5,348.63 307.5,362.3 307.5,373.75 " fill="none" id="ConfigReaderBase&lt;-ConfigReader" style="stroke: #A80036; stroke-width: 1.0;"/><polygon fill="none" points="300.5,334.21,307.5,314.21,314.5,334.21,300.5,334.21" style="stroke: #A80036; stroke-width: 1.0;"/><!--MD5=[5e0c03f4ea7430c6926af8976e9e9d64]
reverse link ConfigReaderRegistry to ConfigReaderBase--><path d="M307.5,114.39 C307.5,129.23 307.5,145.37 307.5,160.91 " fill="none" id="ConfigReaderRegistry&lt;-ConfigReaderBase" style="stroke: #A80036; stroke-width: 1.0;"/><polygon fill="#A80036" points="307.5,101.17,303.5,107.17,307.5,113.17,311.5,107.17,307.5,101.17" style="stroke: #A80036; stroke-width: 1.0;"/><!--MD5=[315ffbd34d09f2320baf7610c9dda9f7]
@startuml ConfigReader
ConfigReaderBase <|- - ConfigReader
ConfigReaderRegistry *- - ConfigReaderBase

abstract class ConfigReaderBase {
    +referenceResolutionMaxCycles()
    +setReferenceResolutionMaxCycles(referenceResolutionMaxCycles)
    {abstract} +read(workingDir, destinationNodePath, otherParameters, externalConfigs, environmentVariables)
    {static} #isFullyResolved(node)
    {static} #unresolvedReferences(node)
    {static} #resolveReferences(externalConfigs, config)
    {static} #transformConfig(config, sourceNodePath, destinationNodePath)
}

class ConfigReader {
    +read(filePath, workingDir, sourceNodePath, destinationNodePath, externalConfigs, environmentVariables)
}

class ConfigReaderRegistry {
    {static} +instance()
    +registerConfigReader(type, configReader)
    +readConfig(type, workingDir, destinationNodePath, otherParameters, externalConfigs, environmentVariables)
}
@enduml

PlantUML version 1.2020.10(Sun May 17 11:35:57 CEST 2020)
(GPL source distribution)
Java Runtime: OpenJDK Runtime Environment
JVM: OpenJDK 64-Bit Server VM
Java Version: 11.0.8+10-post-Ubuntu-0ubuntu120.04
Operating System: Linux
Default Encoding: UTF-8
Language: en
Country: US
--></g></svg>