<?xml version="1.0" encoding="UTF-8" standalone="no"?><svg xmlns="http://www.w3.org/2000/svg" xmlns:xlink="http://www.w3.org/1999/xlink" contentScriptType="application/ecmascript" contentStyleType="text/css" height="339px" preserveAspectRatio="none" style="width:170px;height:339px;" version="1.1" viewBox="0 0 170 339" width="170px" zoomAndPan="magnify"><defs><filter height="300%" id="fjxp5coxhoaiz" width="300%" x="-1" y="-1"><feGaussianBlur result="blurOut" stdDeviation="2.0"/><feColorMatrix in="blurOut" result="blurOut2" type="matrix" values="0 0 0 0 0 0 0 0 0 0 0 0 0 0 0 0 0 0 .4 0"/><feOffset dx="4.0" dy="4.0" in="blurOut2" result="blurOut3"/><feBlend in="SourceGraphic" in2="blurOut3" mode="normal"/></filter></defs><g><!--MD5=[a7a276926f9c52ae47a6f83d030a5f62]
class ConfigNode--><rect fill="#FEFECE" filter="url(#fjxp5coxhoaiz)" height="48" id="ConfigNode" style="stroke: #A80036; stroke-width: 1.5;" width="95" x="35" y="8"/><ellipse cx="50" cy="24" fill="#A9DCDF" rx="11" ry="11" style="stroke: #A80036; stroke-width: 1.0;"/><path d="M45.1719,29.75 L48.5156,17.5625 L51.6563,17.5625 L55.0313,29.75 L52.5625,29.75 L51.8281,26.7344 L48.3125,26.7344 L47.5625,29.75 L45.1719,29.75 Z M49.5781,21.7031 L48.8281,24.7031 L51.3438,24.7031 L50.625,21.7031 Q50.4844,21.125 50.3594,20.5781 Q50.2344,20.0156 50.0938,19.4375 Q49.9844,20.0156 49.8438,20.5781 Q49.7031,21.125 49.5781,21.7031 Z "/><text fill="#000000" font-family="sans-serif" font-size="12" font-style="italic" lengthAdjust="spacingAndGlyphs" textLength="63" x="64" y="28.656">ConfigNode</text><line style="stroke: #A80036; stroke-width: 1.5;" x1="36" x2="129" y1="40" y2="40"/><line style="stroke: #A80036; stroke-width: 1.5;" x1="36" x2="129" y1="48" y2="48"/><!--MD5=[a2f695ec1be2d699b5668dd356d59d23]
class ConfigObjectNode--><rect fill="#FEFECE" filter="url(#fjxp5coxhoaiz)" height="212.8008" id="ConfigObjectNode" style="stroke: #A80036; stroke-width: 1.5;" width="153" x="6" y="116"/><ellipse cx="29.55" cy="132" fill="#ADD1B2" rx="11" ry="11" style="stroke: #A80036; stroke-width: 1.0;"/><path d="M29.0188,138.9219 Q27.2688,138.9219 26.1281,138.1875 Q25.0031,137.4375 24.4406,136.0938 Q23.8938,134.7344 23.8938,132.9375 Q23.8938,130.9063 24.55,129.4531 Q25.2063,128 26.4875,127.2188 Q27.7688,126.4375 29.6438,126.4375 Q30.5344,126.4375 31.2063,126.625 Q31.8781,126.7969 32.5656,127.1406 L31.7531,129.1563 Q31.1281,128.8438 30.5813,128.7188 Q30.05,128.5938 29.5656,128.5938 Q28.3938,128.5938 27.6906,129.125 Q26.9875,129.6563 26.6906,130.6094 Q26.3938,131.5625 26.3938,132.8281 Q26.3938,134.8438 27.1125,135.8125 Q27.8313,136.7656 29.425,136.7656 Q30.0188,136.7656 30.6438,136.6094 Q31.2688,136.4531 32.0969,136.0781 L32.0969,138.2969 Q31.3625,138.6094 30.5656,138.7656 Q29.7844,138.9219 29.0188,138.9219 Z "/><text fill="#000000" font-family="sans-serif" font-size="12" lengthAdjust="spacingAndGlyphs" textLength="102" x="45.45" y="136.656">ConfigObjectNode</text><line style="stroke: #A80036; stroke-width: 1.5;" x1="7" x2="158" y1="148" y2="148"/><line style="stroke: #A80036; stroke-width: 1.5;" x1="7" x2="158" y1="156" y2="156"/><ellipse cx="17" cy="167" fill="#84BE84" rx="3" ry="3" style="stroke: #038048; stroke-width: 1.0;"/><text fill="#000000" font-family="sans-serif" font-size="11" font-style="italic" lengthAdjust="spacingAndGlyphs" textLength="31" x="26" y="171.7589">clone()</text><ellipse cx="17" cy="181.9819" fill="#84BE84" rx="3" ry="3" style="stroke: #038048; stroke-width: 1.0;"/><text fill="#000000" font-family="sans-serif" font-size="11" font-style="italic" lengthAdjust="spacingAndGlyphs" textLength="26" x="26" y="186.7408">type()</text><ellipse cx="17" cy="196.9638" fill="#84BE84" rx="3" ry="3" style="stroke: #038048; stroke-width: 1.0;"/><text fill="#000000" font-family="sans-serif" font-size="11" lengthAdjust="spacingAndGlyphs" textLength="36" x="26" y="201.7227">count()</text><ellipse cx="17" cy="211.9457" fill="#84BE84" rx="3" ry="3" style="stroke: #038048; stroke-width: 1.0;"/><text fill="#000000" font-family="sans-serif" font-size="11" lengthAdjust="spacingAndGlyphs" textLength="79" x="26" y="216.7046">contains(name)</text><ellipse cx="17" cy="226.9276" fill="#84BE84" rx="3" ry="3" style="stroke: #038048; stroke-width: 1.0;"/><text fill="#000000" font-family="sans-serif" font-size="11" lengthAdjust="spacingAndGlyphs" textLength="40" x="26" y="231.6865">names()</text><ellipse cx="17" cy="241.9094" fill="#84BE84" rx="3" ry="3" style="stroke: #038048; stroke-width: 1.0;"/><text fill="#000000" font-family="sans-serif" font-size="11" lengthAdjust="spacingAndGlyphs" textLength="62" x="26" y="246.6684">name(node)</text><ellipse cx="17" cy="256.8913" fill="#84BE84" rx="3" ry="3" style="stroke: #038048; stroke-width: 1.0;"/><text fill="#000000" font-family="sans-serif" font-size="11" lengthAdjust="spacingAndGlyphs" textLength="79" x="26" y="261.6502">member(name)</text><ellipse cx="17" cy="271.8732" fill="#84BE84" rx="3" ry="3" style="stroke: #038048; stroke-width: 1.0;"/><text fill="#000000" font-family="sans-serif" font-size="11" lengthAdjust="spacingAndGlyphs" textLength="127" x="26" y="276.6321">setMember(name, node)</text><ellipse cx="17" cy="286.8551" fill="#84BE84" rx="3" ry="3" style="stroke: #038048; stroke-width: 1.0;"/><text fill="#000000" font-family="sans-serif" font-size="11" lengthAdjust="spacingAndGlyphs" textLength="75" x="26" y="291.614">remove(name)</text><ellipse cx="17" cy="301.837" fill="#84BE84" rx="3" ry="3" style="stroke: #038048; stroke-width: 1.0;"/><text fill="#000000" font-family="sans-serif" font-size="11" lengthAdjust="spacingAndGlyphs" textLength="59" x="26" y="306.5959">removeAll()</text><ellipse cx="17" cy="316.8189" fill="#84BE84" rx="3" ry="3" style="stroke: #038048; stroke-width: 1.0;"/><text fill="#000000" font-family="sans-serif" font-size="11" lengthAdjust="spacingAndGlyphs" textLength="64" x="26" y="321.5778">apply(other)</text><!--MD5=[353fa94a07706ac34ceef480849d69a6]
reverse link ConfigNode to ConfigObjectNode--><path d="M82.5,76.37 C82.5,88.39 82.5,101.99 82.5,115.92 " fill="none" id="ConfigNode&lt;-ConfigObjectNode" style="stroke: #A80036; stroke-width: 1.0;"/><polygon fill="none" points="75.5,76.11,82.5,56.11,89.5,76.11,75.5,76.11" style="stroke: #A80036; stroke-width: 1.0;"/><!--MD5=[d9d01f996e7eb516658d51dae4dd50ca]
@startuml ConfigObjectNode
ConfigNode <|- - ConfigObjectNode

abstract class ConfigNode

class ConfigObjectNode {
    {abstract} +clone()
    {abstract} +type() 
    +count()
    +contains(name)
    +names()
    +name(node)
    +member(name)
    +setMember(name, node)
    +remove(name)
    +removeAll()
    +apply(other)
}
@enduml

PlantUML version 1.2020.10(Sun May 17 11:35:57 CEST 2020)
(GPL source distribution)
Java Runtime: OpenJDK Runtime Environment
JVM: OpenJDK 64-Bit Server VM
Java Version: 11.0.8+10-post-Ubuntu-0ubuntu120.04
Operating System: Linux
Default Encoding: UTF-8
Language: en
Country: US
--></g></svg>