<?xml version="1.0" encoding="UTF-8" standalone="no"?><svg xmlns="http://www.w3.org/2000/svg" xmlns:xlink="http://www.w3.org/1999/xlink" contentScriptType="application/ecmascript" contentStyleType="text/css" height="887px" preserveAspectRatio="none" style="width:277px;height:887px;background:#FFFFFF;" version="1.1" viewBox="0 0 277 887" width="277px" zoomAndPan="magnify"><defs><filter height="300%" id="f1dica3kerfhq9" width="300%" x="-1" y="-1"><feGaussianBlur result="blurOut" stdDeviation="2.0"/><feColorMatrix in="blurOut" result="blurOut2" type="matrix" values="0 0 0 0 0 0 0 0 0 0 0 0 0 0 0 0 0 0 .4 0"/><feOffset dx="4.0" dy="4.0" in="blurOut2" result="blurOut3"/><feBlend in="SourceGraphic" in2="blurOut3" mode="normal"/></filter></defs><g><!--MD5=[a7a276926f9c52ae47a6f83d030a5f62]
class ConfigNode--><rect codeLine="5" fill="#FEFECE" filter="url(#f1dica3kerfhq9)" height="48" id="ConfigNode" style="stroke:#A80036;stroke-width:1.5;" width="95" x="87.5" y="7"/><ellipse cx="102.5" cy="23" fill="#A9DCDF" rx="11" ry="11" style="stroke:#A80036;stroke-width:1.0;"/><path d="M97.6719,28.75 L101.0156,16.5625 L104.1563,16.5625 L107.5313,28.75 L105.0625,28.75 L104.3281,25.7344 L100.8125,25.7344 L100.0625,28.75 L97.6719,28.75 Z M102.0781,20.7031 L101.3281,23.7031 L103.8438,23.7031 L103.125,20.7031 Q102.9844,20.125 102.8594,19.5781 Q102.7344,19.0156 102.5938,18.4375 Q102.4844,19.0156 102.3438,19.5781 Q102.2031,20.125 102.0781,20.7031 Z " fill="#000000"/><text fill="#000000" font-family="sans-serif" font-size="12" font-style="italic" lengthAdjust="spacing" textLength="63" x="116.5" y="27.656">ConfigNode</text><line style="stroke:#A80036;stroke-width:1.5;" x1="88.5" x2="181.5" y1="39" y2="39"/><line style="stroke:#A80036;stroke-width:1.5;" x1="88.5" x2="181.5" y1="47" y2="47"/><!--MD5=[eff292fbcbe482f9229f4ba7e78a31cc]
class ConfigDerivedArrayNode--><rect codeLine="34" fill="#FEFECE" filter="url(#f1dica3kerfhq9)" height="227.7827" id="ConfigDerivedArrayNode" style="stroke:#A80036;stroke-width:1.5;" width="203" x="33.5" y="115"/><ellipse cx="62" cy="131" fill="#ADD1B2" rx="11" ry="11" style="stroke:#A80036;stroke-width:1.0;"/><path d="M61.4688,137.9219 Q59.7188,137.9219 58.5781,137.1875 Q57.4531,136.4375 56.8906,135.0938 Q56.3438,133.7344 56.3438,131.9375 Q56.3438,129.9063 57,128.4531 Q57.6563,127 58.9375,126.2188 Q60.2188,125.4375 62.0938,125.4375 Q62.9844,125.4375 63.6563,125.625 Q64.3281,125.7969 65.0156,126.1406 L64.2031,128.1563 Q63.5781,127.8438 63.0313,127.7188 Q62.5,127.5938 62.0156,127.5938 Q60.8438,127.5938 60.1406,128.125 Q59.4375,128.6563 59.1406,129.6094 Q58.8438,130.5625 58.8438,131.8281 Q58.8438,133.8438 59.5625,134.8125 Q60.2813,135.7656 61.875,135.7656 Q62.4688,135.7656 63.0938,135.6094 Q63.7188,135.4531 64.5469,135.0781 L64.5469,137.2969 Q63.8125,137.6094 63.0156,137.7656 Q62.2344,137.9219 61.4688,137.9219 Z " fill="#000000"/><text fill="#000000" font-family="sans-serif" font-size="12" lengthAdjust="spacing" textLength="141" x="79" y="135.656">ConfigDerivedArrayNode</text><line style="stroke:#A80036;stroke-width:1.5;" x1="34.5" x2="235.5" y1="147" y2="147"/><line style="stroke:#A80036;stroke-width:1.5;" x1="34.5" x2="235.5" y1="155" y2="155"/><ellipse cx="44.5" cy="166" fill="#84BE84" rx="3" ry="3" style="stroke:#038048;stroke-width:1.0;"/><text fill="#000000" font-family="sans-serif" font-size="11" font-style="italic" lengthAdjust="spacing" textLength="31" x="53.5" y="170.7589">clone()</text><ellipse cx="44.5" cy="180.9819" fill="#84BE84" rx="3" ry="3" style="stroke:#038048;stroke-width:1.0;"/><text fill="#000000" font-family="sans-serif" font-size="11" font-style="italic" lengthAdjust="spacing" textLength="26" x="53.5" y="185.7408">type()</text><ellipse cx="44.5" cy="195.9638" fill="#84BE84" rx="3" ry="3" style="stroke:#038048;stroke-width:1.0;"/><text fill="#000000" font-family="sans-serif" font-size="11" lengthAdjust="spacing" textLength="90" x="53.5" y="200.7227">operationCount()</text><ellipse cx="44.5" cy="210.9457" fill="#84BE84" rx="3" ry="3" style="stroke:#038048;stroke-width:1.0;"/><text fill="#000000" font-family="sans-serif" font-size="11" lengthAdjust="spacing" textLength="87" x="53.5" y="215.7046">operation(index)</text><ellipse cx="44.5" cy="225.9276" fill="#84BE84" rx="3" ry="3" style="stroke:#038048;stroke-width:1.0;"/><text fill="#000000" font-family="sans-serif" font-size="11" lengthAdjust="spacing" textLength="63" x="53.5" y="230.6865">operations()</text><ellipse cx="44.5" cy="240.9094" fill="#84BE84" rx="3" ry="3" style="stroke:#038048;stroke-width:1.0;"/><text fill="#000000" font-family="sans-serif" font-size="11" lengthAdjust="spacing" textLength="137" x="53.5" y="245.6684">setOperations(operations)</text><ellipse cx="44.5" cy="255.8913" fill="#84BE84" rx="3" ry="3" style="stroke:#038048;stroke-width:1.0;"/><text fill="#000000" font-family="sans-serif" font-size="11" lengthAdjust="spacing" textLength="157" x="53.5" y="260.6502">prependOperation(operation)</text><ellipse cx="44.5" cy="270.8732" fill="#84BE84" rx="3" ry="3" style="stroke:#038048;stroke-width:1.0;"/><text fill="#000000" font-family="sans-serif" font-size="11" lengthAdjust="spacing" textLength="177" x="53.5" y="275.6321">insertOperation(index, operation)</text><ellipse cx="44.5" cy="285.8551" fill="#84BE84" rx="3" ry="3" style="stroke:#038048;stroke-width:1.0;"/><text fill="#000000" font-family="sans-serif" font-size="11" lengthAdjust="spacing" textLength="152" x="53.5" y="290.614">appendOperation(operation)</text><ellipse cx="44.5" cy="300.837" fill="#84BE84" rx="3" ry="3" style="stroke:#038048;stroke-width:1.0;"/><text fill="#000000" font-family="sans-serif" font-size="11" lengthAdjust="spacing" textLength="162" x="53.5" y="305.5959">setOperation(index, operation)</text><ellipse cx="44.5" cy="315.8189" fill="#84BE84" rx="3" ry="3" style="stroke:#038048;stroke-width:1.0;"/><text fill="#000000" font-family="sans-serif" font-size="11" lengthAdjust="spacing" textLength="129" x="53.5" y="320.5778">removeOperation(index)</text><ellipse cx="44.5" cy="330.8008" fill="#84BE84" rx="3" ry="3" style="stroke:#038048;stroke-width:1.0;"/><text fill="#000000" font-family="sans-serif" font-size="11" lengthAdjust="spacing" textLength="118" x="53.5" y="335.5597">removeAllOperations()</text><!--MD5=[e2b718b19a62adf4c7ab6312ca43ecea]
class ConfigDerivedArrayNodeOperation--><rect codeLine="19" fill="#FEFECE" filter="url(#f1dica3kerfhq9)" height="227.7827" id="ConfigDerivedArrayNodeOperation" style="stroke:#A80036;stroke-width:1.5;" width="229" x="20.5" y="403"/><ellipse cx="35.5" cy="419" fill="#ADD1B2" rx="11" ry="11" style="stroke:#A80036;stroke-width:1.0;"/><path d="M34.9688,425.9219 Q33.2188,425.9219 32.0781,425.1875 Q30.9531,424.4375 30.3906,423.0938 Q29.8438,421.7344 29.8438,419.9375 Q29.8438,417.9063 30.5,416.4531 Q31.1563,415 32.4375,414.2188 Q33.7188,413.4375 35.5938,413.4375 Q36.4844,413.4375 37.1563,413.625 Q37.8281,413.7969 38.5156,414.1406 L37.7031,416.1563 Q37.0781,415.8438 36.5313,415.7188 Q36,415.5938 35.5156,415.5938 Q34.3438,415.5938 33.6406,416.125 Q32.9375,416.6563 32.6406,417.6094 Q32.3438,418.5625 32.3438,419.8281 Q32.3438,421.8438 33.0625,422.8125 Q33.7813,423.7656 35.375,423.7656 Q35.9688,423.7656 36.5938,423.6094 Q37.2188,423.4531 38.0469,423.0781 L38.0469,425.2969 Q37.3125,425.6094 36.5156,425.7656 Q35.7344,425.9219 34.9688,425.9219 Z " fill="#000000"/><text fill="#000000" font-family="sans-serif" font-size="12" lengthAdjust="spacing" textLength="197" x="49.5" y="423.656">ConfigDerivedArrayNodeOperation</text><line style="stroke:#A80036;stroke-width:1.5;" x1="21.5" x2="248.5" y1="435" y2="435"/><line style="stroke:#A80036;stroke-width:1.5;" x1="21.5" x2="248.5" y1="443" y2="443"/><ellipse cx="31.5" cy="454" fill="#84BE84" rx="3" ry="3" style="stroke:#038048;stroke-width:1.0;"/><text fill="#000000" font-family="sans-serif" font-size="11" lengthAdjust="spacing" textLength="29" x="40.5" y="458.7589">type()</text><ellipse cx="31.5" cy="468.9819" fill="#84BE84" rx="3" ry="3" style="stroke:#038048;stroke-width:1.0;"/><text fill="#000000" font-family="sans-serif" font-size="11" lengthAdjust="spacing" textLength="69" x="40.5" y="473.7408">setType(type)</text><ellipse cx="31.5" cy="483.9638" fill="#84BE84" rx="3" ry="3" style="stroke:#038048;stroke-width:1.0;"/><text fill="#000000" font-family="sans-serif" font-size="11" lengthAdjust="spacing" textLength="95" x="40.5" y="488.7227">destinationIndex()</text><ellipse cx="31.5" cy="498.9457" fill="#84BE84" rx="3" ry="3" style="stroke:#038048;stroke-width:1.0;"/><text fill="#000000" font-family="sans-serif" font-size="11" lengthAdjust="spacing" textLength="110" x="40.5" y="503.7046">setDestination(index)</text><ellipse cx="31.5" cy="513.9276" fill="#84BE84" rx="3" ry="3" style="stroke:#038048;stroke-width:1.0;"/><text fill="#000000" font-family="sans-serif" font-size="11" lengthAdjust="spacing" textLength="30" x="40.5" y="518.6865">base()</text><ellipse cx="31.5" cy="528.9094" fill="#84BE84" rx="3" ry="3" style="stroke:#038048;stroke-width:1.0;"/><text fill="#000000" font-family="sans-serif" font-size="11" lengthAdjust="spacing" textLength="69" x="40.5" y="533.6684">setBase(base)</text><ellipse cx="31.5" cy="543.8913" fill="#84BE84" rx="3" ry="3" style="stroke:#038048;stroke-width:1.0;"/><text fill="#000000" font-family="sans-serif" font-size="11" lengthAdjust="spacing" textLength="71" x="40.5" y="548.6502">sourceIndex()</text><ellipse cx="31.5" cy="558.8732" fill="#84BE84" rx="3" ry="3" style="stroke:#038048;stroke-width:1.0;"/><text fill="#000000" font-family="sans-serif" font-size="11" lengthAdjust="spacing" textLength="116" x="40.5" y="563.6321">setSourceIndex(index)</text><ellipse cx="31.5" cy="573.8551" fill="#84BE84" rx="3" ry="3" style="stroke:#038048;stroke-width:1.0;"/><text fill="#000000" font-family="sans-serif" font-size="11" lengthAdjust="spacing" textLength="36" x="40.5" y="578.614">count()</text><ellipse cx="31.5" cy="588.837" fill="#84BE84" rx="3" ry="3" style="stroke:#038048;stroke-width:1.0;"/><text fill="#000000" font-family="sans-serif" font-size="11" lengthAdjust="spacing" textLength="83" x="40.5" y="593.5959">setCount(count)</text><ellipse cx="31.5" cy="603.8189" fill="#84BE84" rx="3" ry="3" style="stroke:#038048;stroke-width:1.0;"/><text fill="#000000" font-family="sans-serif" font-size="11" lengthAdjust="spacing" textLength="39" x="40.5" y="608.5778">config()</text><ellipse cx="31.5" cy="618.8008" fill="#84BE84" rx="3" ry="3" style="stroke:#038048;stroke-width:1.0;"/><text fill="#000000" font-family="sans-serif" font-size="11" lengthAdjust="spacing" textLength="89" x="40.5" y="623.5597">setConfig(config)</text><!--MD5=[278709a52d7713be346579accd3b22bd]
class ConfigDerivedArrayNodeOperationType--><rect codeLine="7" fill="#FEFECE" filter="url(#f1dica3kerfhq9)" height="182.837" id="ConfigDerivedArrayNodeOperationType" style="stroke:#A80036;stroke-width:1.5;" width="256" x="7" y="691"/><ellipse cx="22" cy="707" fill="#EB937F" rx="11" ry="11" style="stroke:#A80036;stroke-width:1.0;"/><path d="M18.3594,713.5 L18.3594,701.3594 L26.0156,701.3594 L26.0156,703.4844 L20.7344,703.4844 L20.7344,706.1406 L25.75,706.1406 L25.75,708.2656 L20.7344,708.2656 L20.7344,711.375 L26.0156,711.375 L26.0156,713.5 L18.3594,713.5 Z " fill="#000000"/><text fill="#000000" font-family="sans-serif" font-size="12" lengthAdjust="spacing" textLength="224" x="36" y="711.656">ConfigDerivedArrayNodeOperationType</text><line style="stroke:#A80036;stroke-width:1.5;" x1="8" x2="262" y1="723" y2="723"/><text fill="#000000" font-family="sans-serif" font-size="11" lengthAdjust="spacing" textLength="90" x="13" y="738.7589">PrependElement,</text><text fill="#000000" font-family="sans-serif" font-size="11" lengthAdjust="spacing" textLength="95" x="13" y="753.7408">PrependElements,</text><text fill="#000000" font-family="sans-serif" font-size="11" lengthAdjust="spacing" textLength="76" x="13" y="768.7227">InsertElement,</text><text fill="#000000" font-family="sans-serif" font-size="11" lengthAdjust="spacing" textLength="81" x="13" y="783.7046">InsertElements,</text><text fill="#000000" font-family="sans-serif" font-size="11" lengthAdjust="spacing" textLength="86" x="13" y="798.6865">AppendElement,</text><text fill="#000000" font-family="sans-serif" font-size="11" lengthAdjust="spacing" textLength="91" x="13" y="813.6684">AppendElements,</text><text fill="#000000" font-family="sans-serif" font-size="11" lengthAdjust="spacing" textLength="92" x="13" y="828.6502">OverrideElement,</text><text fill="#000000" font-family="sans-serif" font-size="11" lengthAdjust="spacing" textLength="97" x="13" y="843.6321">OverrideElements,</text><text fill="#000000" font-family="sans-serif" font-size="11" lengthAdjust="spacing" textLength="89" x="13" y="858.614">RemoveElements</text><line style="stroke:#A80036;stroke-width:1.5;" x1="8" x2="262" y1="865.837" y2="865.837"/><!--MD5=[67c080b02672b09a9a7787ba6ac764aa]
reverse link ConfigNode to ConfigDerivedArrayNode--><path codeLine="1" d="M135,75.35 C135,87.28 135,100.8 135,114.75 " fill="none" id="ConfigNode-backto-ConfigDerivedArrayNode" style="stroke:#A80036;stroke-width:1.0;"/><polygon fill="none" points="128,75.25,135,55.25,142,75.25,128,75.25" style="stroke:#A80036;stroke-width:1.0;"/><!--MD5=[9f17ca4c7a9436fe90c1aeda0488afe2]
reverse link ConfigDerivedArrayNode to ConfigDerivedArrayNodeOperation--><path codeLine="2" d="M135,356.04 C135,371.62 135,387.48 135,402.85 " fill="none" id="ConfigDerivedArrayNode-backto-ConfigDerivedArrayNodeOperation" style="stroke:#A80036;stroke-width:1.0;"/><polygon fill="#A80036" points="135,343.03,131,349.03,135,355.03,139,349.03,135,343.03" style="stroke:#A80036;stroke-width:1.0;"/><!--MD5=[e919ab5878eb0eb1134dad644ee21025]
link ConfigDerivedArrayNodeOperation to ConfigDerivedArrayNodeOperationType--><path codeLine="3" d="M135,631.28 C135,651.22 135,671.75 135,690.97 " fill="none" id="ConfigDerivedArrayNodeOperation-ConfigDerivedArrayNodeOperationType" style="stroke:#A80036;stroke-width:1.0;"/><!--MD5=[60087871c2c55f15c2c49bf0f46ddf33]
@startuml ConfigDerivedArrayNode
ConfigNode <|- - ConfigDerivedArrayNode
ConfigDerivedArrayNode *- - ConfigDerivedArrayNodeOperation
ConfigDerivedArrayNodeOperation - - ConfigDerivedArrayNodeOperationType

abstract class ConfigNode

enum ConfigDerivedArrayNodeOperationType {
    PrependElement,
    PrependElements,
    InsertElement,
    InsertElements,
    AppendElement,
    AppendElements,
    OverrideElement,
    OverrideElements,
    RemoveElements
}

class ConfigDerivedArrayNodeOperation {
    +type()
    +setType(type)
    +destinationIndex()
    +setDestination(index)
    +base()
    +setBase(base)
    +sourceIndex()
    +setSourceIndex(index)
    +count()
    +setCount(count)
    +config()
    +setConfig(config)
}

class ConfigDerivedArrayNode {
    {abstract} +clone()
    {abstract} +type()
    +operationCount()
    +operation(index)
    +operations()
    +setOperations(operations)
    +prependOperation(operation)
    +insertOperation(index, operation)
    +appendOperation(operation)
    +setOperation(index, operation)
    +removeOperation(index)
    +removeAllOperations()
}
@enduml

PlantUML version 1.2021.7(Sun May 23 14:40:07 CEST 2021)
(GPL source distribution)
Java Runtime: OpenJDK Runtime Environment
JVM: OpenJDK 64-Bit Server VM
Default Encoding: UTF-8
Language: en
Country: US
--></g></svg>