<?xml version="1.0" encoding="UTF-8" standalone="no"?><svg xmlns="http://www.w3.org/2000/svg" xmlns:xlink="http://www.w3.org/1999/xlink" contentScriptType="application/ecmascript" contentStyleType="text/css" height="459px" preserveAspectRatio="none" style="width:517px;height:459px;" version="1.1" viewBox="0 0 517 459" width="517px" zoomAndPan="magnify"><defs><filter height="300%" id="f19b93qiszzodn" width="300%" x="-1" y="-1"><feGaussianBlur result="blurOut" stdDeviation="2.0"/><feColorMatrix in="blurOut" result="blurOut2" type="matrix" values="0 0 0 0 0 0 0 0 0 0 0 0 0 0 0 0 0 0 .4 0"/><feOffset dx="4.0" dy="4.0" in="blurOut2" result="blurOut3"/><feBlend in="SourceGraphic" in2="blurOut3" mode="normal"/></filter></defs><g><!--MD5=[300820d20048966bb67ace7c5b50e9bc]
class ConfigLoader--><rect fill="#FEFECE" filter="url(#f19b93qiszzodn)" height="287.7102" id="ConfigLoader" style="stroke: #A80036; stroke-width: 1.5;" width="500" x="6" y="8"/><ellipse cx="215.25" cy="24" fill="#A9DCDF" rx="11" ry="11" style="stroke: #A80036; stroke-width: 1.0;"/><path d="M210.4219,29.75 L213.7656,17.5625 L216.9063,17.5625 L220.2813,29.75 L217.8125,29.75 L217.0781,26.7344 L213.5625,26.7344 L212.8125,29.75 L210.4219,29.75 Z M214.8281,21.7031 L214.0781,24.7031 L216.5938,24.7031 L215.875,21.7031 Q215.7344,21.125 215.6094,20.5781 Q215.4844,20.0156 215.3438,19.4375 Q215.2344,20.0156 215.0938,20.5781 Q214.9531,21.125 214.8281,21.7031 Z "/><text fill="#000000" font-family="sans-serif" font-size="12" font-style="italic" lengthAdjust="spacingAndGlyphs" textLength="73" x="235.75" y="28.656">ConfigLoader</text><line style="stroke: #A80036; stroke-width: 1.5;" x1="7" x2="505" y1="40" y2="40"/><line style="stroke: #A80036; stroke-width: 1.5;" x1="7" x2="505" y1="48" y2="48"/><ellipse cx="17" cy="59" fill="#84BE84" rx="3" ry="3" style="stroke: #038048; stroke-width: 1.0;"/><text fill="#000000" font-family="sans-serif" font-size="11" lengthAdjust="spacingAndGlyphs" textLength="97" x="26" y="63.7589">loadConfig(config)</text><ellipse cx="17" cy="73.9819" fill="#84BE84" rx="3" ry="3" style="stroke: #038048; stroke-width: 1.0;"/><text fill="#000000" font-family="sans-serif" font-size="11" lengthAdjust="spacingAndGlyphs" textLength="188" x="26" y="78.7408">loadConfig(parameterName, config)</text><ellipse cx="17" cy="88.9638" fill="#84BE84" rx="3" ry="3" style="stroke: #038048; stroke-width: 1.0;"/><text fill="#000000" font-family="sans-serif" font-size="11" lengthAdjust="spacingAndGlyphs" textLength="276" x="26" y="93.7227">loadOptionalConfig(parameterName, config, loaded)</text><ellipse cx="17" cy="103.9457" fill="#84BE84" rx="3" ry="3" style="stroke: #038048; stroke-width: 1.0;"/><text fill="#000000" font-family="sans-serif" font-size="11" lengthAdjust="spacingAndGlyphs" textLength="162" x="26" y="108.7046">loadConfigAtPath(path, config)</text><ellipse cx="17" cy="118.9276" fill="#84BE84" rx="3" ry="3" style="stroke: #038048; stroke-width: 1.0;"/><text fill="#000000" font-family="sans-serif" font-size="11" lengthAdjust="spacingAndGlyphs" textLength="250" x="26" y="123.6865">loadOptionalConfigAtPath(path, config, loaded)</text><polygon fill="#FFFF44" points="17,128.9094,21,132.9094,17,136.9094,13,132.9094" style="stroke: #B38D22; stroke-width: 1.0;"/><text fill="#000000" font-family="sans-serif" font-size="11" lengthAdjust="spacingAndGlyphs" textLength="381" x="26" y="138.6684">loadRequiredConfigParameter(parameterValue, parameterName, config)</text><polygon fill="#FFFF44" points="17,143.8913,21,147.8913,17,151.8913,13,147.8913" style="stroke: #B38D22; stroke-width: 1.0;"/><text fill="#000000" font-family="sans-serif" font-size="11" lengthAdjust="spacingAndGlyphs" textLength="434" x="26" y="153.6502">loadRequiredConfigParameter(parameterValue, parameterName, config, validator)</text><polygon fill="#FFFF44" points="17,158.8732,21,162.8732,17,166.8732,13,162.8732" style="stroke: #B38D22; stroke-width: 1.0;"/><text fill="#000000" font-family="sans-serif" font-size="11" lengthAdjust="spacingAndGlyphs" textLength="421" x="26" y="168.6321">loadOptionalConfigParameter(parameterValue, parameterName, config, loaded)</text><polygon fill="#FFFF44" points="17,173.8551,21,177.8551,17,181.8551,13,177.8551" style="stroke: #B38D22; stroke-width: 1.0;"/><text fill="#000000" font-family="sans-serif" font-size="11" lengthAdjust="spacingAndGlyphs" textLength="474" x="26" y="183.614">loadOptionalConfigParameter(parameterValue, parameterName, config, validator, loaded)</text><polygon fill="#FFFF44" points="17,188.837,21,192.837,17,196.837,13,192.837" style="stroke: #B38D22; stroke-width: 1.0;"/><text fill="#000000" font-family="sans-serif" font-size="11" lengthAdjust="spacingAndGlyphs" textLength="344" x="26" y="198.5959">loadRequiredConfigContainer(container, parameterName, config)</text><polygon fill="#FFFF44" points="17,203.8189,21,207.8189,17,211.8189,13,207.8189" style="stroke: #B38D22; stroke-width: 1.0;"/><text fill="#000000" font-family="sans-serif" font-size="11" lengthAdjust="spacingAndGlyphs" textLength="413" x="26" y="213.5778">loadRequiredConfigContainer(container, parameterName, config, itemCreator)</text><polygon fill="#FFFF44" points="17,218.8008,21,222.8008,17,226.8008,13,222.8008" style="stroke: #B38D22; stroke-width: 1.0;"/><text fill="#000000" font-family="sans-serif" font-size="11" lengthAdjust="spacingAndGlyphs" textLength="384" x="26" y="228.5597">loadOptionalConfigContainer(container, parameterName, config, loaded)</text><polygon fill="#FFFF44" points="17,233.7827,21,237.7827,17,241.7827,13,237.7827" style="stroke: #B38D22; stroke-width: 1.0;"/><text fill="#000000" font-family="sans-serif" font-size="11" lengthAdjust="spacingAndGlyphs" textLength="453" x="26" y="243.5416">loadOptionalConfigContainer(container, parameterName, config, itemCreator, loaded)</text><rect fill="#F24D5C" height="6" style="stroke: #C82930; stroke-width: 1.0;" width="6" x="14" y="250.7645"/><text fill="#000000" font-family="sans-serif" font-size="11" font-style="italic" lengthAdjust="spacingAndGlyphs" textLength="143" x="26" y="258.5235">loadConfigParameters(config)</text><rect fill="#F24D5C" height="6" style="stroke: #C82930; stroke-width: 1.0;" width="6" x="14" y="265.7464"/><text fill="#000000" font-family="sans-serif" font-size="11" font-style="italic" lengthAdjust="spacingAndGlyphs" textLength="75" x="26" y="273.5053">validateConfig()</text><rect fill="#F24D5C" height="6" style="stroke: #C82930; stroke-width: 1.0;" width="6" x="14" y="280.7283"/><text fill="#000000" font-family="sans-serif" font-size="11" font-style="italic" lengthAdjust="spacingAndGlyphs" textLength="85" x="26" y="288.4872">handleError(error)</text><!--MD5=[13beb8f3113d7d860d19782e278be1eb]
class ExampleConfig--><rect fill="#FEFECE" filter="url(#f19b93qiszzodn)" height="92.9457" id="ExampleConfig" style="stroke: #A80036; stroke-width: 1.5;" width="169" x="171.5" y="356"/><ellipse cx="210.35" cy="372" fill="#ADD1B2" rx="11" ry="11" style="stroke: #A80036; stroke-width: 1.0;"/><path d="M209.8188,378.9219 Q208.0688,378.9219 206.9281,378.1875 Q205.8031,377.4375 205.2406,376.0938 Q204.6938,374.7344 204.6938,372.9375 Q204.6938,370.9063 205.35,369.4531 Q206.0063,368 207.2875,367.2188 Q208.5688,366.4375 210.4438,366.4375 Q211.3344,366.4375 212.0063,366.625 Q212.6781,366.7969 213.3656,367.1406 L212.5531,369.1563 Q211.9281,368.8438 211.3813,368.7188 Q210.85,368.5938 210.3656,368.5938 Q209.1938,368.5938 208.4906,369.125 Q207.7875,369.6563 207.4906,370.6094 Q207.1938,371.5625 207.1938,372.8281 Q207.1938,374.8438 207.9125,375.8125 Q208.6313,376.7656 210.225,376.7656 Q210.8188,376.7656 211.4438,376.6094 Q212.0688,376.4531 212.8969,376.0781 L212.8969,378.2969 Q212.1625,378.6094 211.3656,378.7656 Q210.5844,378.9219 209.8188,378.9219 Z "/><text fill="#000000" font-family="sans-serif" font-size="12" lengthAdjust="spacingAndGlyphs" textLength="84" x="229.65" y="376.656">ExampleConfig</text><line style="stroke: #A80036; stroke-width: 1.5;" x1="172.5" x2="339.5" y1="388" y2="388"/><line style="stroke: #A80036; stroke-width: 1.5;" x1="172.5" x2="339.5" y1="396" y2="396"/><rect fill="#F24D5C" height="6" style="stroke: #C82930; stroke-width: 1.0;" width="6" x="179.5" y="404"/><text fill="#000000" font-family="sans-serif" font-size="11" font-style="italic" lengthAdjust="spacingAndGlyphs" textLength="143" x="191.5" y="411.7589">loadConfigParameters(config)</text><rect fill="#F24D5C" height="6" style="stroke: #C82930; stroke-width: 1.0;" width="6" x="179.5" y="418.9819"/><text fill="#000000" font-family="sans-serif" font-size="11" font-style="italic" lengthAdjust="spacingAndGlyphs" textLength="75" x="191.5" y="426.7408">validateConfig()</text><rect fill="#F24D5C" height="6" style="stroke: #C82930; stroke-width: 1.0;" width="6" x="179.5" y="433.9638"/><text fill="#000000" font-family="sans-serif" font-size="11" font-style="italic" lengthAdjust="spacingAndGlyphs" textLength="85" x="191.5" y="441.7227">handleError(error)</text><!--MD5=[6f72643c786386ad114c84750bf1e398]
reverse link ConfigLoader to ExampleConfig--><path d="M256,316.52 C256,330.66 256,344.05 256,355.83 " fill="none" id="ConfigLoader&lt;-ExampleConfig" style="stroke: #A80036; stroke-width: 1.0;"/><polygon fill="none" points="249,316.11,256,296.11,263,316.11,249,316.11" style="stroke: #A80036; stroke-width: 1.0;"/><!--MD5=[10cbc1f5e618705cae81f7478a2fb648]
@startuml ConfigLoader
ConfigLoader <|- - ExampleConfig

abstract class ConfigLoader {
    +loadConfig(config)
    +loadConfig(parameterName, config)
    +loadOptionalConfig(parameterName, config, loaded)
    +loadConfigAtPath(path, config)
    +loadOptionalConfigAtPath(path, config, loaded)
    #loadRequiredConfigParameter(parameterValue, parameterName, config)
    #loadRequiredConfigParameter(parameterValue, parameterName, config, validator)
    #loadOptionalConfigParameter(parameterValue, parameterName, config, loaded)
    #loadOptionalConfigParameter(parameterValue, parameterName, config, validator, loaded)
    #loadRequiredConfigContainer(container, parameterName, config)
    #loadRequiredConfigContainer(container, parameterName, config, itemCreator)
    #loadOptionalConfigContainer(container, parameterName, config, loaded)
    #loadOptionalConfigContainer(container, parameterName, config, itemCreator, loaded)
    {abstract} -loadConfigParameters(config)
    {abstract} -validateConfig()
    {abstract} -handleError(error)
}

class ExampleConfig {
    {abstract} -loadConfigParameters(config)
    {abstract} -validateConfig()
    {abstract} -handleError(error)
}
@enduml

PlantUML version 1.2020.10(Sun May 17 11:35:57 CEST 2020)
(GPL source distribution)
Java Runtime: OpenJDK Runtime Environment
JVM: OpenJDK 64-Bit Server VM
Java Version: 11.0.8+10-post-Ubuntu-0ubuntu120.04
Operating System: Linux
Default Encoding: UTF-8
Language: en
Country: US
--></g></svg>