<?xml version="1.0" encoding="UTF-8" standalone="no"?><svg xmlns="http://www.w3.org/2000/svg" xmlns:xlink="http://www.w3.org/1999/xlink" contentScriptType="application/ecmascript" contentStyleType="text/css" height="341px" preserveAspectRatio="none" style="width:174px;height:341px;background:#FFFFFF;" version="1.1" viewBox="0 0 174 341" width="174px" zoomAndPan="magnify"><defs><filter height="300%" id="fgp2h3gbe11rj" width="300%" x="-1" y="-1"><feGaussianBlur result="blurOut" stdDeviation="2.0"/><feColorMatrix in="blurOut" result="blurOut2" type="matrix" values="0 0 0 0 0 0 0 0 0 0 0 0 0 0 0 0 0 0 .4 0"/><feOffset dx="4.0" dy="4.0" in="blurOut2" result="blurOut3"/><feBlend in="SourceGraphic" in2="blurOut3" mode="normal"/></filter></defs><g><!--MD5=[a7a276926f9c52ae47a6f83d030a5f62]
class ConfigNode--><rect codeLine="3" fill="#FEFECE" filter="url(#fgp2h3gbe11rj)" height="48" id="ConfigNode" style="stroke:#A80036;stroke-width:1.5;" width="95" x="36" y="7"/><ellipse cx="51" cy="23" fill="#A9DCDF" rx="11" ry="11" style="stroke:#A80036;stroke-width:1.0;"/><path d="M46.1719,28.75 L49.5156,16.5625 L52.6563,16.5625 L56.0313,28.75 L53.5625,28.75 L52.8281,25.7344 L49.3125,25.7344 L48.5625,28.75 L46.1719,28.75 Z M50.5781,20.7031 L49.8281,23.7031 L52.3438,23.7031 L51.625,20.7031 Q51.4844,20.125 51.3594,19.5781 Q51.2344,19.0156 51.0938,18.4375 Q50.9844,19.0156 50.8438,19.5781 Q50.7031,20.125 50.5781,20.7031 Z " fill="#000000"/><text fill="#000000" font-family="sans-serif" font-size="12" font-style="italic" lengthAdjust="spacing" textLength="63" x="65" y="27.656">ConfigNode</text><line style="stroke:#A80036;stroke-width:1.5;" x1="37" x2="130" y1="39" y2="39"/><line style="stroke:#A80036;stroke-width:1.5;" x1="37" x2="130" y1="47" y2="47"/><!--MD5=[a2f695ec1be2d699b5668dd356d59d23]
class ConfigObjectNode--><rect codeLine="5" fill="#FEFECE" filter="url(#fgp2h3gbe11rj)" height="212.8008" id="ConfigObjectNode" style="stroke:#A80036;stroke-width:1.5;" width="153" x="7" y="115"/><ellipse cx="30.55" cy="131" fill="#ADD1B2" rx="11" ry="11" style="stroke:#A80036;stroke-width:1.0;"/><path d="M30.0188,137.9219 Q28.2688,137.9219 27.1281,137.1875 Q26.0031,136.4375 25.4406,135.0938 Q24.8938,133.7344 24.8938,131.9375 Q24.8938,129.9063 25.55,128.4531 Q26.2063,127 27.4875,126.2188 Q28.7688,125.4375 30.6438,125.4375 Q31.5344,125.4375 32.2063,125.625 Q32.8781,125.7969 33.5656,126.1406 L32.7531,128.1563 Q32.1281,127.8438 31.5813,127.7188 Q31.05,127.5938 30.5656,127.5938 Q29.3938,127.5938 28.6906,128.125 Q27.9875,128.6563 27.6906,129.6094 Q27.3938,130.5625 27.3938,131.8281 Q27.3938,133.8438 28.1125,134.8125 Q28.8313,135.7656 30.425,135.7656 Q31.0188,135.7656 31.6438,135.6094 Q32.2688,135.4531 33.0969,135.0781 L33.0969,137.2969 Q32.3625,137.6094 31.5656,137.7656 Q30.7844,137.9219 30.0188,137.9219 Z " fill="#000000"/><text fill="#000000" font-family="sans-serif" font-size="12" lengthAdjust="spacing" textLength="102" x="46.45" y="135.656">ConfigObjectNode</text><line style="stroke:#A80036;stroke-width:1.5;" x1="8" x2="159" y1="147" y2="147"/><line style="stroke:#A80036;stroke-width:1.5;" x1="8" x2="159" y1="155" y2="155"/><ellipse cx="18" cy="166" fill="#84BE84" rx="3" ry="3" style="stroke:#038048;stroke-width:1.0;"/><text fill="#000000" font-family="sans-serif" font-size="11" font-style="italic" lengthAdjust="spacing" textLength="31" x="27" y="170.7589">clone()</text><ellipse cx="18" cy="180.9819" fill="#84BE84" rx="3" ry="3" style="stroke:#038048;stroke-width:1.0;"/><text fill="#000000" font-family="sans-serif" font-size="11" font-style="italic" lengthAdjust="spacing" textLength="26" x="27" y="185.7408">type()</text><ellipse cx="18" cy="195.9638" fill="#84BE84" rx="3" ry="3" style="stroke:#038048;stroke-width:1.0;"/><text fill="#000000" font-family="sans-serif" font-size="11" lengthAdjust="spacing" textLength="36" x="27" y="200.7227">count()</text><ellipse cx="18" cy="210.9457" fill="#84BE84" rx="3" ry="3" style="stroke:#038048;stroke-width:1.0;"/><text fill="#000000" font-family="sans-serif" font-size="11" lengthAdjust="spacing" textLength="79" x="27" y="215.7046">contains(name)</text><ellipse cx="18" cy="225.9276" fill="#84BE84" rx="3" ry="3" style="stroke:#038048;stroke-width:1.0;"/><text fill="#000000" font-family="sans-serif" font-size="11" lengthAdjust="spacing" textLength="40" x="27" y="230.6865">names()</text><ellipse cx="18" cy="240.9094" fill="#84BE84" rx="3" ry="3" style="stroke:#038048;stroke-width:1.0;"/><text fill="#000000" font-family="sans-serif" font-size="11" lengthAdjust="spacing" textLength="62" x="27" y="245.6684">name(node)</text><ellipse cx="18" cy="255.8913" fill="#84BE84" rx="3" ry="3" style="stroke:#038048;stroke-width:1.0;"/><text fill="#000000" font-family="sans-serif" font-size="11" lengthAdjust="spacing" textLength="79" x="27" y="260.6502">member(name)</text><ellipse cx="18" cy="270.8732" fill="#84BE84" rx="3" ry="3" style="stroke:#038048;stroke-width:1.0;"/><text fill="#000000" font-family="sans-serif" font-size="11" lengthAdjust="spacing" textLength="127" x="27" y="275.6321">setMember(name, node)</text><ellipse cx="18" cy="285.8551" fill="#84BE84" rx="3" ry="3" style="stroke:#038048;stroke-width:1.0;"/><text fill="#000000" font-family="sans-serif" font-size="11" lengthAdjust="spacing" textLength="75" x="27" y="290.614">remove(name)</text><ellipse cx="18" cy="300.837" fill="#84BE84" rx="3" ry="3" style="stroke:#038048;stroke-width:1.0;"/><text fill="#000000" font-family="sans-serif" font-size="11" lengthAdjust="spacing" textLength="59" x="27" y="305.5959">removeAll()</text><ellipse cx="18" cy="315.8189" fill="#84BE84" rx="3" ry="3" style="stroke:#038048;stroke-width:1.0;"/><text fill="#000000" font-family="sans-serif" font-size="11" lengthAdjust="spacing" textLength="64" x="27" y="320.5778">apply(other)</text><!--MD5=[353fa94a07706ac34ceef480849d69a6]
reverse link ConfigNode to ConfigObjectNode--><path codeLine="1" d="M83.5,75.37 C83.5,87.39 83.5,100.99 83.5,114.92 " fill="none" id="ConfigNode-backto-ConfigObjectNode" style="stroke:#A80036;stroke-width:1.0;"/><polygon fill="none" points="76.5,75.11,83.5,55.11,90.5,75.11,76.5,75.11" style="stroke:#A80036;stroke-width:1.0;"/><!--MD5=[715a18dfc01f9d7917bcdcda443dd1b9]
@startuml ConfigObjectNode
ConfigNode <|- - ConfigObjectNode

abstract class ConfigNode

class ConfigObjectNode {
    {abstract} +clone()
    {abstract} +type()
    +count()
    +contains(name)
    +names()
    +name(node)
    +member(name)
    +setMember(name, node)
    +remove(name)
    +removeAll()
    +apply(other)
}
@enduml

PlantUML version 1.2021.7(Sun May 23 14:40:07 CEST 2021)
(GPL source distribution)
Java Runtime: OpenJDK Runtime Environment
JVM: OpenJDK 64-Bit Server VM
Default Encoding: UTF-8
Language: en
Country: US
--></g></svg>