<?xml version="1.0" encoding="UTF-8" standalone="no"?><svg xmlns="http://www.w3.org/2000/svg" xmlns:xlink="http://www.w3.org/1999/xlink" contentScriptType="application/ecmascript" contentStyleType="text/css" height="461px" preserveAspectRatio="none" style="width:523px;height:461px;background:#FFFFFF;" version="1.1" viewBox="0 0 523 461" width="523px" zoomAndPan="magnify"><defs><filter height="300%" id="f19b93qiszzodn" width="300%" x="-1" y="-1"><feGaussianBlur result="blurOut" stdDeviation="2.0"/><feColorMatrix in="blurOut" result="blurOut2" type="matrix" values="0 0 0 0 0 0 0 0 0 0 0 0 0 0 0 0 0 0 .4 0"/><feOffset dx="4.0" dy="4.0" in="blurOut2" result="blurOut3"/><feBlend in="SourceGraphic" in2="blurOut3" mode="normal"/></filter></defs><g><!--MD5=[300820d20048966bb67ace7c5b50e9bc]
class ConfigLoader--><rect codeLine="3" fill="#FEFECE" filter="url(#f19b93qiszzodn)" height="287.7102" id="ConfigLoader" style="stroke:#A80036;stroke-width:1.5;" width="500" x="9" y="7"/><ellipse cx="218.25" cy="23" fill="#A9DCDF" rx="11" ry="11" style="stroke:#A80036;stroke-width:1.0;"/><path d="M213.4219,28.75 L216.7656,16.5625 L219.9063,16.5625 L223.2813,28.75 L220.8125,28.75 L220.0781,25.7344 L216.5625,25.7344 L215.8125,28.75 L213.4219,28.75 Z M217.8281,20.7031 L217.0781,23.7031 L219.5938,23.7031 L218.875,20.7031 Q218.7344,20.125 218.6094,19.5781 Q218.4844,19.0156 218.3438,18.4375 Q218.2344,19.0156 218.0938,19.5781 Q217.9531,20.125 217.8281,20.7031 Z " fill="#000000"/><text fill="#000000" font-family="sans-serif" font-size="12" font-style="italic" lengthAdjust="spacing" textLength="73" x="238.75" y="27.656">ConfigLoader</text><line style="stroke:#A80036;stroke-width:1.5;" x1="10" x2="508" y1="39" y2="39"/><line style="stroke:#A80036;stroke-width:1.5;" x1="10" x2="508" y1="47" y2="47"/><ellipse cx="20" cy="58" fill="#84BE84" rx="3" ry="3" style="stroke:#038048;stroke-width:1.0;"/><text fill="#000000" font-family="sans-serif" font-size="11" lengthAdjust="spacing" textLength="97" x="29" y="62.7589">loadConfig(config)</text><ellipse cx="20" cy="72.9819" fill="#84BE84" rx="3" ry="3" style="stroke:#038048;stroke-width:1.0;"/><text fill="#000000" font-family="sans-serif" font-size="11" lengthAdjust="spacing" textLength="188" x="29" y="77.7408">loadConfig(parameterName, config)</text><ellipse cx="20" cy="87.9638" fill="#84BE84" rx="3" ry="3" style="stroke:#038048;stroke-width:1.0;"/><text fill="#000000" font-family="sans-serif" font-size="11" lengthAdjust="spacing" textLength="276" x="29" y="92.7227">loadOptionalConfig(parameterName, config, loaded)</text><ellipse cx="20" cy="102.9457" fill="#84BE84" rx="3" ry="3" style="stroke:#038048;stroke-width:1.0;"/><text fill="#000000" font-family="sans-serif" font-size="11" lengthAdjust="spacing" textLength="162" x="29" y="107.7046">loadConfigAtPath(path, config)</text><ellipse cx="20" cy="117.9276" fill="#84BE84" rx="3" ry="3" style="stroke:#038048;stroke-width:1.0;"/><text fill="#000000" font-family="sans-serif" font-size="11" lengthAdjust="spacing" textLength="250" x="29" y="122.6865">loadOptionalConfigAtPath(path, config, loaded)</text><polygon fill="#FFFF44" points="20,127.9094,24,131.9094,20,135.9094,16,131.9094" style="stroke:#B38D22;stroke-width:1.0;"/><text fill="#000000" font-family="sans-serif" font-size="11" lengthAdjust="spacing" textLength="381" x="29" y="137.6684">loadRequiredConfigParameter(parameterValue, parameterName, config)</text><polygon fill="#FFFF44" points="20,142.8913,24,146.8913,20,150.8913,16,146.8913" style="stroke:#B38D22;stroke-width:1.0;"/><text fill="#000000" font-family="sans-serif" font-size="11" lengthAdjust="spacing" textLength="434" x="29" y="152.6502">loadRequiredConfigParameter(parameterValue, parameterName, config, validator)</text><polygon fill="#FFFF44" points="20,157.8732,24,161.8732,20,165.8732,16,161.8732" style="stroke:#B38D22;stroke-width:1.0;"/><text fill="#000000" font-family="sans-serif" font-size="11" lengthAdjust="spacing" textLength="421" x="29" y="167.6321">loadOptionalConfigParameter(parameterValue, parameterName, config, loaded)</text><polygon fill="#FFFF44" points="20,172.8551,24,176.8551,20,180.8551,16,176.8551" style="stroke:#B38D22;stroke-width:1.0;"/><text fill="#000000" font-family="sans-serif" font-size="11" lengthAdjust="spacing" textLength="474" x="29" y="182.614">loadOptionalConfigParameter(parameterValue, parameterName, config, validator, loaded)</text><polygon fill="#FFFF44" points="20,187.837,24,191.837,20,195.837,16,191.837" style="stroke:#B38D22;stroke-width:1.0;"/><text fill="#000000" font-family="sans-serif" font-size="11" lengthAdjust="spacing" textLength="344" x="29" y="197.5959">loadRequiredConfigContainer(container, parameterName, config)</text><polygon fill="#FFFF44" points="20,202.8189,24,206.8189,20,210.8189,16,206.8189" style="stroke:#B38D22;stroke-width:1.0;"/><text fill="#000000" font-family="sans-serif" font-size="11" lengthAdjust="spacing" textLength="413" x="29" y="212.5778">loadRequiredConfigContainer(container, parameterName, config, itemCreator)</text><polygon fill="#FFFF44" points="20,217.8008,24,221.8008,20,225.8008,16,221.8008" style="stroke:#B38D22;stroke-width:1.0;"/><text fill="#000000" font-family="sans-serif" font-size="11" lengthAdjust="spacing" textLength="384" x="29" y="227.5597">loadOptionalConfigContainer(container, parameterName, config, loaded)</text><polygon fill="#FFFF44" points="20,232.7827,24,236.7827,20,240.7827,16,236.7827" style="stroke:#B38D22;stroke-width:1.0;"/><text fill="#000000" font-family="sans-serif" font-size="11" lengthAdjust="spacing" textLength="453" x="29" y="242.5416">loadOptionalConfigContainer(container, parameterName, config, itemCreator, loaded)</text><rect fill="#F24D5C" height="6" style="stroke:#C82930;stroke-width:1.0;" width="6" x="17" y="249.7645"/><text fill="#000000" font-family="sans-serif" font-size="11" font-style="italic" lengthAdjust="spacing" textLength="143" x="29" y="257.5235">loadConfigParameters(config)</text><rect fill="#F24D5C" height="6" style="stroke:#C82930;stroke-width:1.0;" width="6" x="17" y="264.7464"/><text fill="#000000" font-family="sans-serif" font-size="11" font-style="italic" lengthAdjust="spacing" textLength="75" x="29" y="272.5053">validateConfig()</text><rect fill="#F24D5C" height="6" style="stroke:#C82930;stroke-width:1.0;" width="6" x="17" y="279.7283"/><text fill="#000000" font-family="sans-serif" font-size="11" font-style="italic" lengthAdjust="spacing" textLength="85" x="29" y="287.4872">handleError(error)</text><!--MD5=[13beb8f3113d7d860d19782e278be1eb]
class ExampleConfig--><rect codeLine="22" fill="#FEFECE" filter="url(#f19b93qiszzodn)" height="92.9457" id="ExampleConfig" style="stroke:#A80036;stroke-width:1.5;" width="169" x="174.5" y="355"/><ellipse cx="213.35" cy="371" fill="#ADD1B2" rx="11" ry="11" style="stroke:#A80036;stroke-width:1.0;"/><path d="M212.8188,377.9219 Q211.0688,377.9219 209.9281,377.1875 Q208.8031,376.4375 208.2406,375.0938 Q207.6938,373.7344 207.6938,371.9375 Q207.6938,369.9063 208.35,368.4531 Q209.0063,367 210.2875,366.2188 Q211.5688,365.4375 213.4438,365.4375 Q214.3344,365.4375 215.0063,365.625 Q215.6781,365.7969 216.3656,366.1406 L215.5531,368.1563 Q214.9281,367.8438 214.3813,367.7188 Q213.85,367.5938 213.3656,367.5938 Q212.1938,367.5938 211.4906,368.125 Q210.7875,368.6563 210.4906,369.6094 Q210.1938,370.5625 210.1938,371.8281 Q210.1938,373.8438 210.9125,374.8125 Q211.6313,375.7656 213.225,375.7656 Q213.8188,375.7656 214.4438,375.6094 Q215.0688,375.4531 215.8969,375.0781 L215.8969,377.2969 Q215.1625,377.6094 214.3656,377.7656 Q213.5844,377.9219 212.8188,377.9219 Z " fill="#000000"/><text fill="#000000" font-family="sans-serif" font-size="12" lengthAdjust="spacing" textLength="84" x="232.65" y="375.656">ExampleConfig</text><line style="stroke:#A80036;stroke-width:1.5;" x1="175.5" x2="342.5" y1="387" y2="387"/><line style="stroke:#A80036;stroke-width:1.5;" x1="175.5" x2="342.5" y1="395" y2="395"/><rect fill="#F24D5C" height="6" style="stroke:#C82930;stroke-width:1.0;" width="6" x="182.5" y="403"/><text fill="#000000" font-family="sans-serif" font-size="11" font-style="italic" lengthAdjust="spacing" textLength="143" x="194.5" y="410.7589">loadConfigParameters(config)</text><rect fill="#F24D5C" height="6" style="stroke:#C82930;stroke-width:1.0;" width="6" x="182.5" y="417.9819"/><text fill="#000000" font-family="sans-serif" font-size="11" font-style="italic" lengthAdjust="spacing" textLength="75" x="194.5" y="425.7408">validateConfig()</text><rect fill="#F24D5C" height="6" style="stroke:#C82930;stroke-width:1.0;" width="6" x="182.5" y="432.9638"/><text fill="#000000" font-family="sans-serif" font-size="11" font-style="italic" lengthAdjust="spacing" textLength="85" x="194.5" y="440.7227">handleError(error)</text><!--MD5=[6f72643c786386ad114c84750bf1e398]
reverse link ConfigLoader to ExampleConfig--><path codeLine="1" d="M259,315.52 C259,329.66 259,343.05 259,354.83 " fill="none" id="ConfigLoader-backto-ExampleConfig" style="stroke:#A80036;stroke-width:1.0;"/><polygon fill="none" points="252,315.11,259,295.11,266,315.11,252,315.11" style="stroke:#A80036;stroke-width:1.0;"/><!--MD5=[c2a5d08d64be5d5e8f4d26a1a2cbcd52]
@startuml ConfigLoader
ConfigLoader <|- - ExampleConfig

abstract class ConfigLoader {
    +loadConfig(config)
    +loadConfig(parameterName, config)
    +loadOptionalConfig(parameterName, config, loaded)
    +loadConfigAtPath(path, config)
    +loadOptionalConfigAtPath(path, config, loaded)
    #loadRequiredConfigParameter(parameterValue, parameterName, config)
    #loadRequiredConfigParameter(parameterValue, parameterName, config, validator)
    #loadOptionalConfigParameter(parameterValue, parameterName, config, loaded)
    #loadOptionalConfigParameter(parameterValue, parameterName, config, validator, loaded)
    #loadRequiredConfigContainer(container, parameterName, config)
    #loadRequiredConfigContainer(container, parameterName, config, itemCreator)
    #loadOptionalConfigContainer(container, parameterName, config, loaded)
    #loadOptionalConfigContainer(container, parameterName, config, itemCreator, loaded)
    {abstract} -loadConfigParameters(config)
    {abstract} -validateConfig()
    {abstract} -handleError(error)
}

class ExampleConfig {
    {abstract} -loadConfigParameters(config)
    {abstract} -validateConfig()
    {abstract} -handleError(error)
}
@enduml

PlantUML version 1.2021.7(Sun May 23 14:40:07 CEST 2021)
(GPL source distribution)
Java Runtime: OpenJDK Runtime Environment
JVM: OpenJDK 64-Bit Server VM
Default Encoding: UTF-8
Language: en
Country: US
--></g></svg>