<?xml version="1.0" encoding="UTF-8" standalone="no"?><svg xmlns="http://www.w3.org/2000/svg" xmlns:xlink="http://www.w3.org/1999/xlink" contentScriptType="application/ecmascript" contentStyleType="text/css" height="341px" preserveAspectRatio="none" style="width:150px;height:341px;background:#FFFFFF;" version="1.1" viewBox="0 0 150 341" width="150px" zoomAndPan="magnify"><defs><filter height="300%" id="fwjttxlla27l6" width="300%" x="-1" y="-1"><feGaussianBlur result="blurOut" stdDeviation="2.0"/><feColorMatrix in="blurOut" result="blurOut2" type="matrix" values="0 0 0 0 0 0 0 0 0 0 0 0 0 0 0 0 0 0 .4 0"/><feOffset dx="4.0" dy="4.0" in="blurOut2" result="blurOut3"/><feBlend in="SourceGraphic" in2="blurOut3" mode="normal"/></filter></defs><g><!--MD5=[a7a276926f9c52ae47a6f83d030a5f62]
class ConfigNode--><rect codeLine="3" fill="#FEFECE" filter="url(#fwjttxlla27l6)" height="48" id="ConfigNode" style="stroke:#A80036;stroke-width:1.5;" width="95" x="24" y="7"/><ellipse cx="39" cy="23" fill="#A9DCDF" rx="11" ry="11" style="stroke:#A80036;stroke-width:1.0;"/><path d="M34.1719,28.75 L37.5156,16.5625 L40.6563,16.5625 L44.0313,28.75 L41.5625,28.75 L40.8281,25.7344 L37.3125,25.7344 L36.5625,28.75 L34.1719,28.75 Z M38.5781,20.7031 L37.8281,23.7031 L40.3438,23.7031 L39.625,20.7031 Q39.4844,20.125 39.3594,19.5781 Q39.2344,19.0156 39.0938,18.4375 Q38.9844,19.0156 38.8438,19.5781 Q38.7031,20.125 38.5781,20.7031 Z " fill="#000000"/><text fill="#000000" font-family="sans-serif" font-size="12" font-style="italic" lengthAdjust="spacing" textLength="63" x="53" y="27.656">ConfigNode</text><line style="stroke:#A80036;stroke-width:1.5;" x1="25" x2="118" y1="39" y2="39"/><line style="stroke:#A80036;stroke-width:1.5;" x1="25" x2="118" y1="47" y2="47"/><!--MD5=[a332cbfa3e8f12cc0803e6ca1d141211]
class ConfigArrayNode--><rect codeLine="5" fill="#FEFECE" filter="url(#fwjttxlla27l6)" height="212.8008" id="ConfigArrayNode" style="stroke:#A80036;stroke-width:1.5;" width="129" x="7" y="115"/><ellipse cx="22" cy="131" fill="#ADD1B2" rx="11" ry="11" style="stroke:#A80036;stroke-width:1.0;"/><path d="M21.4688,137.9219 Q19.7188,137.9219 18.5781,137.1875 Q17.4531,136.4375 16.8906,135.0938 Q16.3438,133.7344 16.3438,131.9375 Q16.3438,129.9063 17,128.4531 Q17.6563,127 18.9375,126.2188 Q20.2188,125.4375 22.0938,125.4375 Q22.9844,125.4375 23.6563,125.625 Q24.3281,125.7969 25.0156,126.1406 L24.2031,128.1563 Q23.5781,127.8438 23.0313,127.7188 Q22.5,127.5938 22.0156,127.5938 Q20.8438,127.5938 20.1406,128.125 Q19.4375,128.6563 19.1406,129.6094 Q18.8438,130.5625 18.8438,131.8281 Q18.8438,133.8438 19.5625,134.8125 Q20.2813,135.7656 21.875,135.7656 Q22.4688,135.7656 23.0938,135.6094 Q23.7188,135.4531 24.5469,135.0781 L24.5469,137.2969 Q23.8125,137.6094 23.0156,137.7656 Q22.2344,137.9219 21.4688,137.9219 Z " fill="#000000"/><text fill="#000000" font-family="sans-serif" font-size="12" lengthAdjust="spacing" textLength="97" x="36" y="135.656">ConfigArrayNode</text><line style="stroke:#A80036;stroke-width:1.5;" x1="8" x2="135" y1="147" y2="147"/><line style="stroke:#A80036;stroke-width:1.5;" x1="8" x2="135" y1="155" y2="155"/><ellipse cx="18" cy="166" fill="#84BE84" rx="3" ry="3" style="stroke:#038048;stroke-width:1.0;"/><text fill="#000000" font-family="sans-serif" font-size="11" font-style="italic" lengthAdjust="spacing" textLength="31" x="27" y="170.7589">clone()</text><ellipse cx="18" cy="180.9819" fill="#84BE84" rx="3" ry="3" style="stroke:#038048;stroke-width:1.0;"/><text fill="#000000" font-family="sans-serif" font-size="11" font-style="italic" lengthAdjust="spacing" textLength="26" x="27" y="185.7408">type()</text><ellipse cx="18" cy="195.9638" fill="#84BE84" rx="3" ry="3" style="stroke:#038048;stroke-width:1.0;"/><text fill="#000000" font-family="sans-serif" font-size="11" lengthAdjust="spacing" textLength="36" x="27" y="200.7227">count()</text><ellipse cx="18" cy="210.9457" fill="#84BE84" rx="3" ry="3" style="stroke:#038048;stroke-width:1.0;"/><text fill="#000000" font-family="sans-serif" font-size="11" lengthAdjust="spacing" textLength="45" x="27" y="215.7046">at(index)</text><ellipse cx="18" cy="225.9276" fill="#84BE84" rx="3" ry="3" style="stroke:#038048;stroke-width:1.0;"/><text fill="#000000" font-family="sans-serif" font-size="11" lengthAdjust="spacing" textLength="78" x="27" y="230.6865">prepend(node)</text><ellipse cx="18" cy="240.9094" fill="#84BE84" rx="3" ry="3" style="stroke:#038048;stroke-width:1.0;"/><text fill="#000000" font-family="sans-serif" font-size="11" lengthAdjust="spacing" textLength="98" x="27" y="245.6684">insert(index, node)</text><ellipse cx="18" cy="255.8913" fill="#84BE84" rx="3" ry="3" style="stroke:#038048;stroke-width:1.0;"/><text fill="#000000" font-family="sans-serif" font-size="11" lengthAdjust="spacing" textLength="73" x="27" y="260.6502">append(node)</text><ellipse cx="18" cy="270.8732" fill="#84BE84" rx="3" ry="3" style="stroke:#038048;stroke-width:1.0;"/><text fill="#000000" font-family="sans-serif" font-size="11" lengthAdjust="spacing" textLength="75" x="27" y="275.6321">remove(index)</text><ellipse cx="18" cy="285.8551" fill="#84BE84" rx="3" ry="3" style="stroke:#038048;stroke-width:1.0;"/><text fill="#000000" font-family="sans-serif" font-size="11" lengthAdjust="spacing" textLength="59" x="27" y="290.614">removeAll()</text><ellipse cx="18" cy="300.837" fill="#84BE84" rx="3" ry="3" style="stroke:#038048;stroke-width:1.0;"/><text fill="#000000" font-family="sans-serif" font-size="11" lengthAdjust="spacing" textLength="91" x="27" y="305.5959">apply(arrayNode)</text><ellipse cx="18" cy="315.8189" fill="#84BE84" rx="3" ry="3" style="stroke:#038048;stroke-width:1.0;"/><text fill="#000000" font-family="sans-serif" font-size="11" lengthAdjust="spacing" textLength="97" x="27" y="320.5778">apply(index, node)</text><!--MD5=[733ee1fda14b3234fce1f98c1430f716]
reverse link ConfigNode to ConfigArrayNode--><path codeLine="1" d="M71.5,75.37 C71.5,87.39 71.5,100.99 71.5,114.92 " fill="none" id="ConfigNode-backto-ConfigArrayNode" style="stroke:#A80036;stroke-width:1.0;"/><polygon fill="none" points="64.5,75.11,71.5,55.11,78.5,75.11,64.5,75.11" style="stroke:#A80036;stroke-width:1.0;"/><!--MD5=[ba2366dbd9c10abe2bbc94beb9866fd3]
@startuml ConfigArrayNode
ConfigNode <|- - ConfigArrayNode

abstract class ConfigNode

class ConfigArrayNode {
    {abstract} +clone()
    {abstract} +type()
    +count()
    +at(index)
    +prepend(node)
    +insert(index, node)
    +append(node)
    +remove(index)
    +removeAll()
    +apply(arrayNode)
    +apply(index, node)
}
@enduml

PlantUML version 1.2021.7(Sun May 23 14:40:07 CEST 2021)
(GPL source distribution)
Java Runtime: OpenJDK Runtime Environment
JVM: OpenJDK 64-Bit Server VM
Default Encoding: UTF-8
Language: en
Country: US
--></g></svg>