<?xml version="1.0" encoding="UTF-8" standalone="no"?><svg xmlns="http://www.w3.org/2000/svg" xmlns:xlink="http://www.w3.org/1999/xlink" contentScriptType="application/ecmascript" contentStyleType="text/css" height="236px" preserveAspectRatio="none" style="width:176px;height:236px;background:#FFFFFF;" version="1.1" viewBox="0 0 176 236" width="176px" zoomAndPan="magnify"><defs><filter height="300%" id="f14tk5xp7r3lhf" width="300%" x="-1" y="-1"><feGaussianBlur result="blurOut" stdDeviation="2.0"/><feColorMatrix in="blurOut" result="blurOut2" type="matrix" values="0 0 0 0 0 0 0 0 0 0 0 0 0 0 0 0 0 0 .4 0"/><feOffset dx="4.0" dy="4.0" in="blurOut2" result="blurOut3"/><feBlend in="SourceGraphic" in2="blurOut3" mode="normal"/></filter></defs><g><!--MD5=[a7a276926f9c52ae47a6f83d030a5f62]
class ConfigNode--><rect codeLine="3" fill="#FEFECE" filter="url(#f14tk5xp7r3lhf)" height="48" id="ConfigNode" style="stroke:#A80036;stroke-width:1.5;" width="95" x="37" y="7"/><ellipse cx="52" cy="23" fill="#A9DCDF" rx="11" ry="11" style="stroke:#A80036;stroke-width:1.0;"/><path d="M47.1719,28.75 L50.5156,16.5625 L53.6563,16.5625 L57.0313,28.75 L54.5625,28.75 L53.8281,25.7344 L50.3125,25.7344 L49.5625,28.75 L47.1719,28.75 Z M51.5781,20.7031 L50.8281,23.7031 L53.3438,23.7031 L52.625,20.7031 Q52.4844,20.125 52.3594,19.5781 Q52.2344,19.0156 52.0938,18.4375 Q51.9844,19.0156 51.8438,19.5781 Q51.7031,20.125 51.5781,20.7031 Z " fill="#000000"/><text fill="#000000" font-family="sans-serif" font-size="12" font-style="italic" lengthAdjust="spacing" textLength="63" x="66" y="27.656">ConfigNode</text><line style="stroke:#A80036;stroke-width:1.5;" x1="38" x2="131" y1="39" y2="39"/><line style="stroke:#A80036;stroke-width:1.5;" x1="38" x2="131" y1="47" y2="47"/><!--MD5=[0d99208a4a4f69f412063ae7199684d3]
class ConfigNodeReference--><rect codeLine="5" fill="#FEFECE" filter="url(#f14tk5xp7r3lhf)" height="107.9276" id="ConfigNodeReference" style="stroke:#A80036;stroke-width:1.5;" width="155" x="7" y="115"/><ellipse cx="22" cy="131" fill="#ADD1B2" rx="11" ry="11" style="stroke:#A80036;stroke-width:1.0;"/><path d="M21.4688,137.9219 Q19.7188,137.9219 18.5781,137.1875 Q17.4531,136.4375 16.8906,135.0938 Q16.3438,133.7344 16.3438,131.9375 Q16.3438,129.9063 17,128.4531 Q17.6563,127 18.9375,126.2188 Q20.2188,125.4375 22.0938,125.4375 Q22.9844,125.4375 23.6563,125.625 Q24.3281,125.7969 25.0156,126.1406 L24.2031,128.1563 Q23.5781,127.8438 23.0313,127.7188 Q22.5,127.5938 22.0156,127.5938 Q20.8438,127.5938 20.1406,128.125 Q19.4375,128.6563 19.1406,129.6094 Q18.8438,130.5625 18.8438,131.8281 Q18.8438,133.8438 19.5625,134.8125 Q20.2813,135.7656 21.875,135.7656 Q22.4688,135.7656 23.0938,135.6094 Q23.7188,135.4531 24.5469,135.0781 L24.5469,137.2969 Q23.8125,137.6094 23.0156,137.7656 Q22.2344,137.9219 21.4688,137.9219 Z " fill="#000000"/><text fill="#000000" font-family="sans-serif" font-size="12" lengthAdjust="spacing" textLength="123" x="36" y="135.656">ConfigNodeReference</text><line style="stroke:#A80036;stroke-width:1.5;" x1="8" x2="161" y1="147" y2="147"/><line style="stroke:#A80036;stroke-width:1.5;" x1="8" x2="161" y1="155" y2="155"/><ellipse cx="18" cy="166" fill="#84BE84" rx="3" ry="3" style="stroke:#038048;stroke-width:1.0;"/><text fill="#000000" font-family="sans-serif" font-size="11" font-style="italic" lengthAdjust="spacing" textLength="31" x="27" y="170.7589">clone()</text><ellipse cx="18" cy="180.9819" fill="#84BE84" rx="3" ry="3" style="stroke:#038048;stroke-width:1.0;"/><text fill="#000000" font-family="sans-serif" font-size="11" font-style="italic" lengthAdjust="spacing" textLength="26" x="27" y="185.7408">type()</text><ellipse cx="18" cy="195.9638" fill="#84BE84" rx="3" ry="3" style="stroke:#038048;stroke-width:1.0;"/><text fill="#000000" font-family="sans-serif" font-size="11" lengthAdjust="spacing" textLength="56" x="27" y="200.7227">reference()</text><ellipse cx="18" cy="210.9457" fill="#84BE84" rx="3" ry="3" style="stroke:#038048;stroke-width:1.0;"/><text fill="#000000" font-family="sans-serif" font-size="11" lengthAdjust="spacing" textLength="123" x="27" y="215.7046">setReference(reference)</text><!--MD5=[87a872849f0e81dedf38434b5892eb7b]
reverse link ConfigNode to ConfigNodeReference--><path codeLine="1" d="M84.5,75.24 C84.5,87.82 84.5,101.71 84.5,114.82 " fill="none" id="ConfigNode-backto-ConfigNodeReference" style="stroke:#A80036;stroke-width:1.0;"/><polygon fill="none" points="77.5,75.07,84.5,55.07,91.5,75.07,77.5,75.07" style="stroke:#A80036;stroke-width:1.0;"/><!--MD5=[f20d42c8969142fccd1fa5efebb6f14a]
@startuml ConfigNodeReference
ConfigNode <|- - ConfigNodeReference

abstract class ConfigNode

class ConfigNodeReference {
    {abstract} +clone()
    {abstract} +type()
    +reference()
    +setReference(reference)
}
@enduml

PlantUML version 1.2021.7(Sun May 23 14:40:07 CEST 2021)
(GPL source distribution)
Java Runtime: OpenJDK Runtime Environment
JVM: OpenJDK 64-Bit Server VM
Default Encoding: UTF-8
Language: en
Country: US
--></g></svg>